<?xml version="1.0" encoding="utf-8"?>
<!-- Generator: Adobe Illustrator 22.1.0, SVG Export Plug-In . SVG Version: 6.00 Build 0)  -->
<svg version="1.1" id="Layer_1" xmlns="http://www.w3.org/2000/svg" xmlns:xlink="http://www.w3.org/1999/xlink" x="0px" y="0px"
	 width="180px" height="60px" viewBox="0 0 180 60" style="enable-background:new 0 0 180 60;" xml:space="preserve">
<style type="text/css">
	.st0{fill:#FFFFFF;}
</style>
<g>
	<g>
		<path class="st0" d="M60.4,54c-0.3,0-0.6-0.1-0.8-0.3c-0.6-0.4-0.6-1.2-0.2-1.8l19.9-25.1c0.4-0.6,1.2-0.6,1.8-0.2
			c0.6,0.4,0.6,1.2,0.2,1.8L61.4,53.5C61.2,53.8,60.8,54,60.4,54z"/>
		<g>
			<path class="st0" d="M55.1,6c-4.8,0-8.9,2.8-10.9,6.8C42.2,8.8,38,6,33.3,6c-6.7,0-12.2,5.5-12.2,12.2c0,0.7,0.6,1.3,1.3,1.3
				s1.3-0.6,1.3-1.3c0-5.3,4.3-9.6,9.6-9.6s9.6,4.3,9.6,9.6c0,0.7,0.6,1.3,1.3,1.3s1.3-0.6,1.3-1.3c0-5.3,4.3-9.6,9.6-9.6
				s9.6,4.3,9.6,9.6c0,0.7,0.6,1.3,1.3,1.3s1.3-0.6,1.3-1.3C67.2,11.5,61.8,6,55.1,6z"/>
			<path class="st0" d="M65.1,26.1c-0.6-0.4-1.4-0.3-1.8,0.2L44.2,50.7L25,26.4c-0.4-0.6-1.2-0.6-1.8-0.2c-0.6,0.4-0.6,1.2-0.2,1.8
				l20.2,25.6c0.2,0.3,0.6,0.5,1,0.5s0.8-0.2,1-0.5L65.4,28C65.8,27.4,65.7,26.6,65.1,26.1z"/>
		</g>
		<path class="st0" d="M27.9,54c-0.4,0-0.7-0.2-1-0.5L7,28.4c-0.4-0.6-0.3-1.3,0.2-1.8c0.6-0.4,1.3-0.3,1.8,0.2l19.9,25.1
			c0.4,0.5,0.3,1.3-0.2,1.8C28.5,53.9,28.2,54,27.9,54z"/>
	</g>
	<g>
		<g>
			<path class="st0" d="M91.8,27.3C91.8,27.2,91.8,27.2,91.8,27.3c-0.1,0-0.2,0-0.2,0.1v3.1c0,0.1,0,0.2-0.1,0.3
				c-0.1,0.1-0.2,0.1-0.3,0.1h-1c-0.1,0-0.2,0-0.3-0.1c-0.1-0.1-0.1-0.2-0.1-0.3V17.3c0-0.1,0-0.2,0.1-0.3c0.1-0.1,0.2-0.1,0.3-0.1
				h1c0.1,0,0.2,0,0.3,0.1c0.1,0.1,0.1,0.2,0.1,0.3v6.8c0,0.1,0.1,0.2,0.2,0.1l3.2-3c0.1-0.1,0.1-0.1,0.2-0.2s0.2-0.1,0.3-0.1h1.1
				c0.2,0,0.3,0.1,0.4,0.2c0.1,0.2,0,0.3-0.1,0.4l-4,3.8c-0.2,0.2-0.2,0.3,0,0.5l4.4,4.3c0.1,0.1,0.2,0.3,0.1,0.4
				c-0.1,0.2-0.2,0.2-0.4,0.2h-1.2c-0.1,0-0.3,0-0.4-0.1s-0.2-0.1-0.2-0.2L91.8,27.3z"/>
			<path class="st0" d="M100.7,22.7c-0.1,0-0.2,0-0.3-0.1c-0.1-0.1-0.1-0.2-0.1-0.3v-0.9c0-0.1,0-0.2,0.1-0.3
				c0.1-0.1,0.2-0.1,0.3-0.1h4c0.1,0,0.2,0,0.3,0.1c0.1,0.1,0.1,0.2,0.1,0.3V29c0,0.1,0.1,0.2,0.2,0.2h2.5c0.1,0,0.2,0,0.3,0.1
				c0.1,0.1,0.1,0.2,0.1,0.3v0.9c0,0.1,0,0.2-0.1,0.3c-0.1,0.1-0.2,0.1-0.3,0.1h-7.3c-0.1,0-0.2,0-0.3-0.1c-0.1-0.1-0.1-0.2-0.1-0.3
				v-0.9c0-0.1,0-0.2,0.1-0.3c0.1-0.1,0.2-0.1,0.3-0.1h2.6c0.1,0,0.2-0.1,0.2-0.2v-6.1c0-0.1-0.1-0.2-0.2-0.2H100.7z M105.2,18.6
				c0,0.2-0.1,0.3-0.3,0.3h-1.3c-0.2,0-0.3-0.1-0.3-0.3v-1.4c0-0.1,0-0.2,0.1-0.2c0.1-0.1,0.1-0.1,0.2-0.1h1.3c0.1,0,0.2,0,0.2,0.1
				c0.1,0.1,0.1,0.1,0.1,0.2L105.2,18.6L105.2,18.6z"/>
			<path class="st0" d="M114.2,31c-0.5,0-1-0.1-1.4-0.3c-0.4-0.2-0.8-0.5-1.2-0.8c-0.3-0.3-0.6-0.7-0.8-1.2
				c-0.2-0.5-0.3-0.9-0.4-1.5c0-0.4,0-0.9,0-1.4s0-1,0-1.4c0-0.5,0.2-1,0.4-1.5c0.2-0.5,0.5-0.9,0.8-1.2c0.3-0.3,0.7-0.6,1.2-0.8
				c0.4-0.2,0.9-0.3,1.4-0.3c0.2,0,0.4,0,0.6,0.1s0.3,0.1,0.5,0.2c0.1,0.1,0.3,0.1,0.4,0.2s0.2,0.1,0.3,0.1c0.1,0,0.3,0,0.3-0.1
				s0.1-0.2,0.1-0.4v-3.5c0-0.1,0-0.2,0.1-0.3c0.1-0.1,0.2-0.1,0.3-0.1h1c0.1,0,0.2,0,0.3,0.1c0.1,0.1,0.1,0.2,0.1,0.3v13.1
				c0,0.1,0,0.2-0.1,0.3c-0.1,0.1-0.2,0.1-0.3,0.1h-0.7c-0.1,0-0.2,0-0.3-0.1c-0.1-0.1-0.1-0.1-0.2-0.2s-0.2-0.1-0.3-0.1
				c-0.1,0-0.3,0-0.4,0.1s-0.2,0.1-0.4,0.2c-0.1,0.1-0.3,0.2-0.6,0.2C114.9,31,114.6,31,114.2,31z M114.4,29.2
				c0.7,0,1.2-0.2,1.6-0.6s0.6-0.9,0.6-1.4c0-0.4,0-0.9,0-1.4s0-1,0-1.4c0-0.5-0.3-1-0.6-1.4c-0.4-0.4-0.9-0.6-1.6-0.6
				s-1.2,0.2-1.6,0.6s-0.6,0.9-0.6,1.4c0,0.4,0,0.9,0,1.4s0,1,0,1.4c0,0.5,0.3,1,0.6,1.4C113.2,29,113.7,29.2,114.4,29.2z"/>
			<path class="st0" d="M121.5,27.6c0-0.1,0-0.2,0.1-0.3c0.1-0.1,0.2-0.1,0.3-0.1h1c0.1,0,0.2,0,0.3,0.1c0.1,0.1,0.1,0.2,0.1,0.3
				c0,0.4,0.1,0.6,0.2,0.9c0.1,0.2,0.3,0.4,0.5,0.5s0.4,0.2,0.7,0.3c0.2,0,0.5,0.1,0.7,0.1c0.3,0,0.5,0,0.8-0.1
				c0.3,0,0.5-0.1,0.7-0.2s0.4-0.3,0.5-0.4c0.1-0.2,0.2-0.4,0.2-0.7c0-0.2-0.1-0.4-0.2-0.5c-0.1-0.2-0.3-0.3-0.5-0.4
				s-0.4-0.2-0.7-0.2c-0.3-0.1-0.5-0.1-0.8-0.2c-0.4-0.1-0.8-0.2-1.2-0.3c-0.4-0.1-0.8-0.3-1.2-0.5c-0.3-0.2-0.6-0.5-0.8-0.8
				c-0.2-0.3-0.3-0.8-0.3-1.3c0-0.4,0.1-0.8,0.3-1.2c0.2-0.3,0.5-0.6,0.8-0.9c0.3-0.2,0.7-0.4,1.1-0.6c0.4-0.1,0.9-0.2,1.3-0.2
				s0.9,0.1,1.3,0.2s0.8,0.3,1.1,0.6c0.3,0.3,0.6,0.6,0.8,0.9c0.2,0.4,0.3,0.8,0.3,1.2c0,0.1,0,0.2-0.1,0.3s-0.2,0.1-0.3,0.1h-1
				c-0.1,0-0.2,0-0.3-0.1c-0.1-0.1-0.1-0.2-0.1-0.3c0-0.3-0.1-0.6-0.4-0.9s-0.7-0.4-1.3-0.4c-0.6,0-1.1,0.1-1.3,0.4
				s-0.4,0.5-0.4,0.8c0,0.4,0.2,0.6,0.5,0.7s0.7,0.3,1.2,0.4c0.4,0.1,0.8,0.2,1.3,0.3c0.5,0.1,0.9,0.3,1.3,0.5s0.7,0.5,0.9,0.9
				s0.4,0.9,0.4,1.5c0,0.5-0.1,1-0.3,1.4s-0.5,0.7-0.9,1c-0.4,0.3-0.8,0.5-1.2,0.6c-0.5,0.1-1,0.2-1.5,0.2s-1-0.1-1.4-0.2
				c-0.5-0.1-0.9-0.3-1.2-0.6c-0.4-0.3-0.7-0.6-0.9-1.1C121.6,28.7,121.5,28.2,121.5,27.6z"/>
			<path class="st0" d="M136.3,29.2c0.6,0,1.1-0.2,1.5-0.5s0.6-0.7,0.6-1.2c0-0.1,0-0.2,0.1-0.3c0.1,0,0.2-0.1,0.3-0.1h1
				c0.1,0,0.2,0,0.3,0.1s0.1,0.2,0.1,0.3c0,0.5-0.1,0.9-0.3,1.3s-0.5,0.8-0.8,1.1c-0.3,0.3-0.7,0.5-1.2,0.7s-1,0.3-1.5,0.3
				c-0.6,0-1.1-0.1-1.6-0.3c-0.5-0.2-0.9-0.5-1.2-0.8s-0.6-0.7-0.8-1.2s-0.3-0.9-0.3-1.5c0-0.4,0-0.9,0-1.4s0-1,0-1.4
				c0-0.5,0.2-1,0.3-1.5c0.2-0.5,0.5-0.9,0.8-1.2c0.3-0.3,0.7-0.6,1.2-0.8c0.5-0.2,1-0.3,1.6-0.3s1.1,0.1,1.5,0.3
				c0.5,0.2,0.9,0.4,1.2,0.7c0.3,0.3,0.6,0.6,0.8,1.1c0.2,0.4,0.3,0.9,0.3,1.3c0,0.1,0,0.2-0.1,0.3c-0.1,0.1-0.1,0.1-0.2,0.1h-1.1
				c-0.1,0-0.2,0-0.3-0.1s-0.1-0.1-0.1-0.2c0-0.5-0.2-0.8-0.6-1.2c-0.4-0.3-0.9-0.5-1.5-0.5c-0.7,0-1.2,0.2-1.6,0.6
				c-0.4,0.4-0.6,0.9-0.6,1.4c0,0.4,0,0.9,0,1.4s0,1,0,1.4c0,0.5,0.2,1,0.6,1.4C135.1,29,135.7,29.2,136.3,29.2z"/>
			<path class="st0" d="M147.1,20.8c0.6,0,1.1,0.1,1.6,0.3c0.5,0.2,0.9,0.5,1.2,0.8s0.6,0.7,0.8,1.2s0.3,0.9,0.4,1.5
				c0,0.4,0,0.9,0,1.4s0,1,0,1.4c0,0.5-0.2,1-0.4,1.5s-0.5,0.9-0.8,1.2c-0.3,0.3-0.8,0.6-1.2,0.8c-0.5,0.2-1,0.3-1.6,0.3
				s-1.1-0.1-1.6-0.3c-0.5-0.2-0.9-0.5-1.2-0.8s-0.6-0.7-0.8-1.2s-0.3-0.9-0.4-1.5c0-0.4,0-0.9,0-1.4s0-1,0-1.4c0-0.5,0.2-1,0.4-1.5
				s0.5-0.9,0.8-1.2c0.3-0.3,0.8-0.6,1.2-0.8S146.5,20.8,147.1,20.8z M147.1,29.2c0.7,0,1.2-0.2,1.6-0.6c0.4-0.4,0.6-0.9,0.6-1.4
				c0-0.4,0-0.9,0-1.4s0-1,0-1.4c0-0.5-0.3-1-0.6-1.4c-0.4-0.4-0.9-0.6-1.6-0.6c-0.7,0-1.2,0.2-1.6,0.6c-0.4,0.4-0.6,0.9-0.6,1.4
				c0,0.4,0,0.9,0,1.4s0,1,0,1.4c0,0.5,0.3,1,0.6,1.4C145.9,29,146.4,29.2,147.1,29.2z"/>
			<path class="st0" d="M157.5,31c-0.5,0-1-0.1-1.4-0.3c-0.4-0.2-0.8-0.5-1.2-0.8c-0.3-0.3-0.6-0.7-0.8-1.2s-0.3-0.9-0.4-1.5
				c0-0.4,0-0.9,0-1.4s0-1,0-1.4c0-0.5,0.2-1,0.4-1.5s0.5-0.9,0.8-1.2c0.3-0.3,0.7-0.6,1.2-0.8c0.4-0.2,0.9-0.3,1.4-0.3
				c0.2,0,0.4,0,0.6,0.1c0.2,0.1,0.3,0.1,0.5,0.2c0.1,0.1,0.3,0.1,0.4,0.2c0.1,0.1,0.2,0.1,0.3,0.1s0.3,0,0.3-0.1
				c0.1-0.1,0.1-0.2,0.1-0.4v-3.5c0-0.1,0-0.2,0.1-0.3c0.1-0.1,0.2-0.1,0.3-0.1h1c0.1,0,0.2,0,0.3,0.1s0.1,0.2,0.1,0.3v13.1
				c0,0.1,0,0.2-0.1,0.3c-0.1,0.1-0.2,0.1-0.3,0.1h-0.7c-0.1,0-0.2,0-0.3-0.1s-0.1-0.1-0.2-0.2c-0.1-0.1-0.2-0.1-0.3-0.1
				s-0.3,0-0.4,0.1c-0.1,0.1-0.2,0.1-0.4,0.2c-0.1,0.1-0.3,0.2-0.6,0.2C158.1,31,157.8,31,157.5,31z M157.7,29.2
				c0.7,0,1.2-0.2,1.6-0.6c0.4-0.4,0.6-0.9,0.6-1.4c0-0.4,0-0.9,0-1.4s0-1,0-1.4c0-0.5-0.3-1-0.6-1.4c-0.4-0.4-0.9-0.6-1.6-0.6
				c-0.7,0-1.2,0.2-1.6,0.6c-0.4,0.4-0.6,0.9-0.6,1.4c0,0.4,0,0.9,0,1.4s0,1,0,1.4c0,0.5,0.3,1,0.6,1.4
				C156.5,29,157,29.2,157.7,29.2z"/>
			<path class="st0" d="M166.5,26.7c0,0.9,0.2,1.6,0.6,2c0.4,0.4,1,0.6,1.7,0.6c0.5,0,0.9-0.1,1.3-0.3c0.4-0.2,0.6-0.5,0.7-0.9
				c0-0.1,0.1-0.2,0.2-0.3c0.1,0,0.2-0.1,0.3-0.1h1c0.1,0,0.2,0,0.3,0.1s0.1,0.2,0.1,0.3c-0.1,0.4-0.2,0.8-0.4,1.2
				c-0.2,0.4-0.5,0.7-0.8,0.9s-0.7,0.5-1.2,0.6c-0.4,0.1-0.9,0.2-1.4,0.2c-0.6,0-1.1-0.1-1.6-0.3c-0.5-0.2-0.9-0.5-1.2-0.8
				s-0.6-0.7-0.8-1.2s-0.3-0.9-0.4-1.5c0-0.4,0-0.9,0-1.4s0-1,0-1.4c0-0.5,0.2-1,0.4-1.5s0.5-0.9,0.8-1.2c0.3-0.3,0.8-0.6,1.2-0.8
				c0.5-0.2,1-0.3,1.6-0.3c1.2,0,2.1,0.3,2.9,1c0.7,0.7,1.1,1.7,1.1,2.9v1.4c0,0.1,0,0.2-0.1,0.3c-0.1,0.1-0.2,0.1-0.3,0.1h-5.6
				C166.6,26.5,166.5,26.5,166.5,26.7z M166.6,24.7c0,0.1,0.1,0.2,0.2,0.2h4.1c0.1,0,0.2-0.1,0.2-0.2c0-0.7-0.2-1.2-0.6-1.6
				c-0.4-0.4-1-0.6-1.6-0.6c-0.7,0-1.2,0.2-1.6,0.6C166.8,23.6,166.6,24.1,166.6,24.7z"/>
		</g>
		<g>
			<path class="st0" d="M96.2,50.8c0,0.4-0.1,0.8-0.2,1.2c-0.2,0.4-0.4,0.7-0.7,1c-0.3,0.3-0.6,0.5-1,0.7S93.5,54,93.1,54
				c-0.4,0-0.8-0.1-1.2-0.2c-0.4-0.2-0.7-0.4-1-0.7s-0.5-0.6-0.7-1S90,51.3,90,50.9c0-0.1,0-0.2,0.1-0.3s0.2-0.1,0.3-0.1h1
				c0.1,0,0.2,0,0.3,0.1c0.1,0.1,0.1,0.2,0.1,0.3c0,0.4,0.1,0.7,0.3,1c0.2,0.3,0.6,0.4,1,0.4c0.5,0,0.8-0.2,1-0.5s0.3-0.6,0.3-1
				v-8.9c0-0.1-0.1-0.2-0.2-0.2h-2.9c-0.1,0-0.2,0-0.3-0.1c-0.1-0.1-0.1-0.2-0.1-0.3v-0.9c0-0.1,0-0.2,0.1-0.3s0.2-0.1,0.3-0.1h4.5
				c0.1,0,0.2,0,0.3,0.1c0.1,0.1,0.1,0.2,0.1,0.3L96.2,50.8L96.2,50.8z M96.3,37.6c0,0.2-0.1,0.3-0.3,0.3h-1.3
				c-0.2,0-0.3-0.1-0.3-0.3v-1.4c0-0.1,0-0.2,0.1-0.2c0.1-0.1,0.1-0.1,0.2-0.1H96c0.1,0,0.2,0,0.2,0.1c0.1,0.1,0.1,0.1,0.1,0.2
				C96.3,36.2,96.3,37.6,96.3,37.6z"/>
			<path class="st0" d="M102.1,45.7c0,0.9,0.2,1.6,0.6,2s1,0.6,1.7,0.6c0.5,0,0.9-0.1,1.3-0.3s0.6-0.5,0.7-0.9
				c0-0.1,0.1-0.2,0.2-0.3c0.1,0,0.2-0.1,0.3-0.1h1c0.1,0,0.2,0,0.3,0.1c0.1,0.1,0.1,0.2,0.1,0.3c-0.1,0.4-0.2,0.8-0.4,1.2
				c-0.2,0.4-0.5,0.7-0.8,0.9c-0.3,0.3-0.7,0.5-1.2,0.6c-0.4,0.1-0.9,0.2-1.4,0.2c-0.6,0-1.1-0.1-1.6-0.3s-0.9-0.5-1.2-0.8
				c-0.3-0.3-0.6-0.7-0.8-1.2c-0.2-0.5-0.3-0.9-0.4-1.5c0-0.4,0-0.9,0-1.4s0-1,0-1.4c0-0.5,0.2-1,0.4-1.5c0.2-0.5,0.5-0.9,0.8-1.2
				s0.8-0.6,1.2-0.8c0.5-0.2,1-0.3,1.6-0.3c1.2,0,2.1,0.3,2.9,1s1.1,1.7,1.1,2.9v1.4c0,0.1,0,0.2-0.1,0.3s-0.2,0.1-0.3,0.1h-5.6
				C102.2,45.5,102.1,45.6,102.1,45.7z M102.1,43.7c0,0.1,0.1,0.2,0.2,0.2h4.1c0.1,0,0.2-0.1,0.2-0.2c0-0.7-0.2-1.2-0.6-1.6
				c-0.4-0.4-1-0.6-1.6-0.6c-0.7,0-1.2,0.2-1.6,0.6C102.4,42.6,102.1,43.1,102.1,43.7z"/>
			<path class="st0" d="M117,49.4c-0.1,0-0.3,0-0.4,0.1s-0.2,0.1-0.4,0.2c-0.1,0.1-0.3,0.2-0.5,0.2c-0.2,0.1-0.5,0.1-0.9,0.1
				c-0.6,0-1.1-0.1-1.5-0.3c-0.5-0.2-0.9-0.4-1.2-0.8c-0.3-0.3-0.6-0.7-0.8-1.2c-0.2-0.5-0.3-1-0.3-1.5v-5.9c0-0.1,0-0.2,0.1-0.3
				s0.2-0.1,0.3-0.1h1c0.1,0,0.2,0,0.3,0.1c0.1,0.1,0.1,0.2,0.1,0.3v5.9c0,0.6,0.2,1,0.6,1.4s0.9,0.6,1.6,0.6c0.6,0,1.1-0.2,1.5-0.5
				s0.6-0.8,0.6-1.4v-6c0-0.1,0-0.2,0.1-0.3s0.2-0.1,0.3-0.1h1c0.1,0,0.2,0,0.3,0.1c0.1,0.1,0.1,0.2,0.1,0.3v9.1
				c0,0.1,0,0.2-0.1,0.3s-0.2,0.1-0.3,0.1h-0.9c-0.1,0-0.2,0-0.3-0.1C117.2,49.6,117.2,49.6,117,49.4
				C117.2,49.5,117.1,49.4,117,49.4z"/>
			<path class="st0" d="M124.1,40.5c0.1,0,0.3,0,0.4-0.1s0.2-0.1,0.4-0.2c0.1-0.1,0.3-0.2,0.5-0.2c0.2-0.1,0.5-0.1,0.8-0.1
				c0.5,0,1,0.1,1.5,0.3c0.5,0.2,0.9,0.4,1.2,0.8c0.3,0.3,0.6,0.7,0.8,1.2s0.3,1,0.3,1.5v5.9c0,0.1,0,0.2-0.1,0.3s-0.2,0.1-0.3,0.1
				h-1c-0.1,0-0.2,0-0.3-0.1s-0.1-0.2-0.1-0.3v-5.9c0-0.6-0.2-1-0.6-1.4s-0.9-0.6-1.5-0.6s-1.1,0.2-1.5,0.5S124,43,124,43.6v6
				c0,0.1,0,0.2-0.1,0.3s-0.2,0.1-0.3,0.1h-1c-0.1,0-0.2,0-0.3-0.1c-0.1-0.1-0.1-0.2-0.1-0.3v-9.1c0-0.1,0-0.2,0.1-0.3
				s0.2-0.1,0.3-0.1h0.9c0.1,0,0.2,0,0.3,0.1C123.9,40.3,123.9,40.3,124.1,40.5C123.9,40.4,124,40.5,124.1,40.5z"/>
			<path class="st0" d="M134.6,45.7c0,0.9,0.2,1.6,0.6,2c0.4,0.4,1,0.6,1.7,0.6c0.5,0,0.9-0.1,1.3-0.3c0.4-0.2,0.6-0.5,0.7-0.9
				c0-0.1,0.1-0.2,0.2-0.3c0.1,0,0.2-0.1,0.3-0.1h1c0.1,0,0.2,0,0.3,0.1s0.1,0.2,0.1,0.3c-0.1,0.4-0.2,0.8-0.4,1.2s-0.5,0.7-0.8,0.9
				c-0.3,0.3-0.7,0.5-1.2,0.6c-0.4,0.1-0.9,0.2-1.4,0.2c-0.6,0-1.1-0.1-1.6-0.3s-0.9-0.5-1.2-0.8s-0.6-0.7-0.8-1.2s-0.3-0.9-0.4-1.5
				c0-0.4,0-0.9,0-1.4s0-1,0-1.4c0-0.5,0.2-1,0.4-1.5s0.5-0.9,0.8-1.2s0.8-0.6,1.2-0.8c0.5-0.2,1-0.3,1.6-0.3c1.2,0,2.1,0.3,2.9,1
				c0.7,0.7,1.1,1.7,1.1,2.9v1.4c0,0.1,0,0.2-0.1,0.3s-0.2,0.1-0.3,0.1H135C134.6,45.5,134.6,45.6,134.6,45.7z M134.6,43.7
				c0,0.1,0.1,0.2,0.2,0.2h4.1c0.1,0,0.2-0.1,0.2-0.2c0-0.7-0.2-1.2-0.6-1.6c-0.4-0.4-1-0.6-1.6-0.6c-0.7,0-1.2,0.2-1.6,0.6
				C134.8,42.6,134.6,43.1,134.6,43.7z"/>
			<path class="st0" d="M143.7,46.7c0-0.1,0-0.2,0.1-0.3s0.2-0.1,0.3-0.1h1c0.1,0,0.2,0,0.3,0.1s0.1,0.2,0.1,0.3
				c0,0.4,0.1,0.6,0.2,0.9c0.1,0.2,0.3,0.4,0.5,0.5s0.4,0.2,0.7,0.3c0.2,0,0.5,0.1,0.7,0.1c0.3,0,0.5,0,0.8-0.1
				c0.3,0,0.5-0.1,0.7-0.2c0.2-0.1,0.4-0.3,0.5-0.4c0.1-0.2,0.2-0.4,0.2-0.7c0-0.2-0.1-0.4-0.2-0.5c-0.1-0.2-0.3-0.3-0.5-0.4
				c-0.2-0.1-0.4-0.2-0.7-0.2c-0.3-0.1-0.5-0.1-0.8-0.2c-0.4-0.1-0.8-0.2-1.2-0.3s-0.8-0.3-1.2-0.5c-0.3-0.2-0.6-0.5-0.8-0.8
				s-0.3-0.8-0.3-1.3c0-0.4,0.1-0.8,0.3-1.2c0.2-0.3,0.5-0.6,0.8-0.9c0.3-0.2,0.7-0.4,1.1-0.6c0.4-0.1,0.9-0.2,1.3-0.2
				c0.4,0,0.9,0.1,1.3,0.2c0.4,0.1,0.8,0.3,1.1,0.6s0.6,0.6,0.8,0.9c0.2,0.4,0.3,0.8,0.3,1.2c0,0.1,0,0.2-0.1,0.3s-0.2,0.1-0.3,0.1
				h-1c-0.1,0-0.2,0-0.3-0.1s-0.1-0.2-0.1-0.3c0-0.3-0.1-0.6-0.4-0.9c-0.3-0.3-0.7-0.4-1.3-0.4s-1.1,0.1-1.3,0.4
				c-0.3,0.2-0.4,0.5-0.4,0.8c0,0.4,0.2,0.6,0.5,0.7c0.3,0.1,0.7,0.3,1.2,0.4c0.4,0.1,0.8,0.2,1.3,0.3s0.9,0.3,1.3,0.5
				c0.4,0.2,0.7,0.5,0.9,0.9s0.4,0.9,0.4,1.5c0,0.5-0.1,1-0.3,1.4s-0.5,0.7-0.9,1s-0.8,0.5-1.2,0.6s-1,0.2-1.5,0.2s-1-0.1-1.4-0.2
				c-0.5-0.1-0.9-0.3-1.2-0.6c-0.4-0.3-0.7-0.6-0.9-1.1C143.8,47.8,143.7,47.3,143.7,46.7z"/>
			<path class="st0" d="M154.5,46.7c0-0.1,0-0.2,0.1-0.3s0.2-0.1,0.3-0.1h1c0.1,0,0.2,0,0.3,0.1s0.1,0.2,0.1,0.3
				c0,0.4,0.1,0.6,0.2,0.9c0.1,0.2,0.3,0.4,0.5,0.5s0.4,0.2,0.7,0.3c0.2,0,0.5,0.1,0.7,0.1c0.3,0,0.5,0,0.8-0.1
				c0.3,0,0.5-0.1,0.7-0.2c0.2-0.1,0.4-0.3,0.5-0.4c0.1-0.2,0.2-0.4,0.2-0.7c0-0.2-0.1-0.4-0.2-0.5c-0.1-0.2-0.3-0.3-0.5-0.4
				c-0.2-0.1-0.4-0.2-0.7-0.2c-0.3-0.1-0.5-0.1-0.8-0.2c-0.4-0.1-0.8-0.2-1.2-0.3s-0.8-0.3-1.2-0.5c-0.3-0.2-0.6-0.5-0.8-0.8
				s-0.3-0.8-0.3-1.3c0-0.4,0.1-0.8,0.3-1.2c0.2-0.3,0.5-0.6,0.8-0.9c0.3-0.2,0.7-0.4,1.1-0.6c0.4-0.1,0.9-0.2,1.3-0.2
				c0.4,0,0.9,0.1,1.3,0.2c0.4,0.1,0.8,0.3,1.1,0.6s0.6,0.6,0.8,0.9c0.2,0.4,0.3,0.8,0.3,1.2c0,0.1,0,0.2-0.1,0.3s-0.2,0.1-0.3,0.1
				h-1c-0.1,0-0.2,0-0.3-0.1s-0.1-0.2-0.1-0.3c0-0.3-0.1-0.6-0.4-0.9c-0.3-0.3-0.7-0.4-1.3-0.4s-1.1,0.1-1.3,0.4
				c-0.3,0.2-0.4,0.5-0.4,0.8c0,0.4,0.2,0.6,0.5,0.7c0.3,0.1,0.7,0.3,1.2,0.4c0.4,0.1,0.8,0.2,1.3,0.3s0.9,0.3,1.3,0.5
				c0.4,0.2,0.7,0.5,0.9,0.9s0.4,0.9,0.4,1.5c0,0.5-0.1,1-0.3,1.4s-0.5,0.7-0.9,1s-0.8,0.5-1.2,0.6c-0.5,0.1-1,0.2-1.5,0.2
				s-1-0.1-1.4-0.2c-0.5-0.1-0.9-0.3-1.2-0.6c-0.4-0.3-0.7-0.6-0.9-1.1C154.6,47.8,154.5,47.3,154.5,46.7z"/>
			<path class="st0" d="M167,45.7c0,0.9,0.2,1.6,0.6,2c0.4,0.4,1,0.6,1.7,0.6c0.5,0,0.9-0.1,1.3-0.3c0.4-0.2,0.6-0.5,0.7-0.9
				c0-0.1,0.1-0.2,0.2-0.3c0.1,0,0.2-0.1,0.3-0.1h1c0.1,0,0.2,0,0.3,0.1s0.1,0.2,0.1,0.3c-0.1,0.4-0.2,0.8-0.4,1.2s-0.5,0.7-0.8,0.9
				c-0.3,0.3-0.7,0.5-1.2,0.6c-0.4,0.1-0.9,0.2-1.4,0.2c-0.6,0-1.1-0.1-1.6-0.3s-0.9-0.5-1.2-0.8s-0.6-0.7-0.8-1.2s-0.3-0.9-0.4-1.5
				c0-0.4,0-0.9,0-1.4s0-1,0-1.4c0-0.5,0.2-1,0.4-1.5s0.5-0.9,0.8-1.2s0.8-0.6,1.2-0.8c0.5-0.2,1-0.3,1.6-0.3c1.2,0,2.1,0.3,2.9,1
				s1.1,1.7,1.1,2.9v1.4c0,0.1,0,0.2-0.1,0.3s-0.2,0.1-0.3,0.1h-5.6C167.1,45.5,167,45.6,167,45.7z M167.1,43.7
				c0,0.1,0.1,0.2,0.2,0.2h4.1c0.1,0,0.2-0.1,0.2-0.2c0-0.7-0.2-1.2-0.6-1.6c-0.4-0.4-1-0.6-1.6-0.6c-0.7,0-1.2,0.2-1.6,0.6
				C167.3,42.6,167.1,43.1,167.1,43.7z"/>
		</g>
	</g>
</g>
</svg>
