<?xml version="1.0" encoding="utf-8"?>
<!-- Generator: Adobe Illustrator 22.1.0, SVG Export Plug-In . SVG Version: 6.00 Build 0)  -->
<svg version="1.1" id="Layer_1" xmlns="http://www.w3.org/2000/svg" xmlns:xlink="http://www.w3.org/1999/xlink" x="0px" y="0px"
	 width="58px" height="54px" viewBox="0 0 58 54" enable-background="new 0 0 58 54" xml:space="preserve">
<g id="Layer_1_1_">
	<g>
		<path fill="#316C89" fill-opacity="0.3" d="M30,52.7C16.4,52.7,5.3,41.6,5.3,28S16.4,3.3,30,3.3S54.7,14.4,54.7,28
			S43.6,52.7,30,52.7z M30,7.1C18.5,7.1,9.1,16.5,9.1,28S18.5,48.9,30,48.9S50.9,39.5,50.9,28S41.5,7.1,30,7.1z"/>
		<circle fill="#3BB2F7" cx="29" cy="27" r="22.8"/>
		<path fill="#FFFFFF" d="M29,51.7C15.4,51.7,4.3,40.6,4.3,27S15.4,2.3,29,2.3S53.7,13.4,53.7,27S42.6,51.7,29,51.7z M29,6.1
			C17.5,6.1,8.1,15.5,8.1,27S17.5,47.9,29,47.9S49.9,38.5,49.9,27S40.5,6.1,29,6.1z"/>
		<path fill="none" stroke="#488A31" stroke-width="0.475" stroke-miterlimit="10" stroke-opacity="0.2" d="M29,51.7
			C15.4,51.7,4.3,40.6,4.3,27S15.4,2.3,29,2.3S53.7,13.4,53.7,27S42.6,51.7,29,51.7z"/>
		<path fill="none" stroke="#488A31" stroke-width="0.475" stroke-miterlimit="10" stroke-opacity="0.1" d="M29,6.1
			C17.5,6.1,8.1,15.5,8.1,27S17.5,47.9,29,47.9S49.9,38.5,49.9,27S40.5,6.1,29,6.1z"/>
	</g>
</g>
<g id="Layer_3">
	<g>
		<path fill="#316C89" fill-opacity="0.3" d="M27.1,38.4c-1.1,0-2.2-0.5-2.8-1.3l-5.7-6.6c-1.3-1.6-1.1-4,0.4-5.3
			c1.6-1.3,4-1.1,5.3,0.4l2.5,2.8l7.7-11.1c1.2-1.7,3.5-2.2,5.3-0.9c1.7,1.2,2.2,3.5,1,5.3L30.2,36.8c-0.7,1-1.7,1.6-2.9,1.6
			C27.2,38.4,27.2,38.4,27.1,38.4z"/>
		<path fill="#FFFFFF" d="M26.1,38.4c-1.1,0-2.2-0.5-2.9-1.3l-5.7-6.6c-1.3-1.6-1.1-4,0.4-5.3c1.6-1.3,4-1.1,5.3,0.4l2.5,2.8
			l7.7-11.1c1.2-1.7,3.5-2.2,5.3-0.9c1.7,1.2,2.2,3.5,0.9,5.3L29.2,36.8c-0.7,1-1.7,1.6-2.9,1.6C26.2,38.4,26.2,38.4,26.1,38.4z"/>
	</g>
</g>
</svg>
