<?xml version="1.0" encoding="utf-8"?>
<!-- Generator: Adobe Illustrator 22.1.0, SVG Export Plug-In . SVG Version: 6.00 Build 0)  -->
<svg version="1.1" id="Layer_1" xmlns="http://www.w3.org/2000/svg" xmlns:xlink="http://www.w3.org/1999/xlink" x="0px" y="0px"
	 width="48px" height="48px" viewBox="0 0 48 48" style="enable-background:new 0 0 48 48;" xml:space="preserve">
<style type="text/css">
	.st0{opacity:0.17;fill:#525252;enable-background:new    ;}
	.st1{fill:#FFFFFF;}
</style>
<path class="st0" d="M42.1,23.7L25.9,7.8c-0.2-0.2-0.6-0.4-0.8-0.4s-0.6,0.1-0.8,0.3L8,23.7l4.2,0V41c0,0.9,0.6,1.6,1.3,1.6H21v-9.9
	c0-0.7,0.6-1.4,1.4-1.4h5.4c0.7,0,1.4,0.6,1.4,1.4v10h7.5c0.7,0,1.3-0.7,1.3-1.6l0-17.4H42.1z"/>
<path class="st1" d="M41.1,22.7L24.9,6.8c-0.2-0.2-0.6-0.4-0.8-0.4s-0.6,0.1-0.8,0.3L7,22.7l4.2,0V40c0,0.9,0.6,1.6,1.3,1.6H20v-9.9
	c0-0.7,0.6-1.4,1.4-1.4h5.4c0.7,0,1.4,0.6,1.4,1.4v10h7.5c0.7,0,1.3-0.7,1.3-1.6l0-17.4H41.1z"/>
</svg>
