<?xml version="1.0" encoding="utf-8"?>
<!-- Generator: Adobe Illustrator 22.1.0, SVG Export Plug-In . SVG Version: 6.00 Build 0)  -->
<svg version="1.1" id="Layer_1" xmlns="http://www.w3.org/2000/svg" xmlns:xlink="http://www.w3.org/1999/xlink" x="0px" y="0px"
	 width="48px" height="48px" viewBox="0 0 48 48" enable-background="new 0 0 48 48" xml:space="preserve">
<g>
	<g>
		<path opacity="0.17" enable-background="new    " d="M24.4,2.9c-11.9,0-21.6,9.7-21.6,21.6C2.9,36.3,12.6,46,24.4,46
			C36.3,46,46,36.3,46,24.4C46,12.6,36.3,2.9,24.4,2.9z M24.4,42.7c-5.2,0-10-2.2-13.3-5.8c-3.6-3.3-5.8-8.1-5.8-13.3
			c0-10,8.2-18.2,18.2-18.2c5.2,0,10,2.2,13.3,5.8c3.6,3.3,5.8,8.1,5.8,13.3C42.7,34.5,34.5,42.7,24.4,42.7z"/>
		<path fill="#FFFFFF" d="M23.6,45.1C11.7,45.1,2,35.4,2,23.6S11.7,2,23.6,2s21.6,9.7,21.6,21.6S35.4,45.1,23.6,45.1z M23.6,5.3
			c-10,0-18.2,8.2-18.2,18.2s8.2,18.2,18.2,18.2s18.2-8.2,18.2-18.2S33.6,5.3,23.6,5.3z"/>
		<path opacity="0.17" fill="none" stroke="#000000" stroke-width="0.4147" stroke-miterlimit="10" stroke-opacity="0.2" d="
			M23.6,45.1C11.7,45.1,2,35.4,2,23.6S11.7,2,23.6,2s21.6,9.7,21.6,21.6S35.4,45.1,23.6,45.1z"/>
		<path opacity="0.17" fill="none" stroke="#000000" stroke-width="0.4147" stroke-miterlimit="10" stroke-opacity="0.1" d="
			M23.6,5.3c-10,0-18.2,8.2-18.2,18.2s8.2,18.2,18.2,18.2s18.2-8.2,18.2-18.2S33.6,5.3,23.6,5.3z"/>
	</g>
	<g>
		<path opacity="0.17" enable-background="new    " d="M21.9,33.5c-1,0-1.9-0.4-2.4-1.1l-5-5.8c-1.1-1.4-1-3.5,0.3-4.6
			c1.4-1.1,3.5-1,4.6,0.3l2.2,2.4l6.7-9.7c1-1.5,3.1-1.9,4.6-0.8c1.5,1,1.9,3.1,0.9,4.6l-9.3,13.2c-0.6,0.9-1.5,1.4-2.5,1.4
			C22,33.5,22,33.5,21.9,33.5z"/>
		<path fill="#FFFFFF" d="M21,33.5c-1,0-1.9-0.4-2.5-1.1l-5-5.8c-1.1-1.4-1-3.5,0.3-4.6c1.4-1.1,3.5-1,4.6,0.3l2.2,2.4l6.7-9.7
			c1-1.5,3.1-1.9,4.6-0.8c1.5,1,1.9,3.1,0.8,4.6l-9.1,13.2c-0.6,0.9-1.5,1.4-2.5,1.4C21.1,33.5,21.1,33.5,21,33.5z"/>
	</g>
</g>
</svg>
