<?xml version="1.0" encoding="utf-8"?>
<!-- Generator: Adobe Illustrator 22.1.0, SVG Export Plug-In . SVG Version: 6.00 Build 0)  -->
<svg version="1.1" id="Layer_3_copy" xmlns="http://www.w3.org/2000/svg" xmlns:xlink="http://www.w3.org/1999/xlink" x="0px"
	 y="0px" width="32px" height="32px" viewBox="0 0 32 32" enable-background="new 0 0 32 32" xml:space="preserve">
<title>panel</title>
<g>
	
		<path fill="#FFFFFF" stroke="#000000" stroke-width="0.39" stroke-linecap="round" stroke-linejoin="round" stroke-opacity="0.2" d="
		M12.2,11.6l8.2,8.2c0.4,0.4,1,0.4,1.3,0c0.4-0.4,0.4-1,0-1.3l-0.4-0.4l1.4-1.4c1.8-1.8,2-4.6,0.6-6.7l4.3-4.4c0.4-0.4,0.4-1,0-1.3
		c-0.4-0.4-1-0.4-1.3,0l-4.3,4.3c-2.1-1.4-4.9-1.2-6.7,0.6L14,10.7l-0.4-0.4c-0.4-0.4-0.9-0.4-1.3,0c0,0,0,0,0,0
		C11.9,10.6,11.9,11.2,12.2,11.6z"/>
	
		<path fill="#FFFFFF" stroke="#000000" stroke-width="0.39" stroke-linecap="round" stroke-linejoin="round" stroke-opacity="0.2" d="
		M11.6,12.2l8.2,8.2c0.4,0.4,0.4,0.9,0,1.3c0,0,0,0,0,0c-0.4,0.4-1,0.4-1.3,0c0,0,0,0,0,0l-0.4-0.4l-1.5,1.5
		c-1.8,1.8-4.6,2.1-6.7,0.6l-4.3,4.3c-0.4,0.4-1,0.4-1.3,0c-0.4-0.4-0.4-1,0-1.3L8.6,22c-1.4-2.1-1.2-4.9,0.6-6.7l1.5-1.4l-0.4-0.4
		c-0.4-0.3-0.4-0.9,0-1.3c0,0,0,0,0,0C10.6,11.8,11.2,11.8,11.6,12.2z"/>
</g>
</svg>
