<?xml version="1.0" encoding="utf-8"?>
<!-- Generator: Adobe Illustrator 22.1.0, SVG Export Plug-In . SVG Version: 6.00 Build 0)  -->
<svg version="1.1" id="Layer_3_copy" xmlns="http://www.w3.org/2000/svg" xmlns:xlink="http://www.w3.org/1999/xlink" x="0px"
	 y="0px" width="74px" height="59.8px" viewBox="0 0 74 59.8" enable-background="new 0 0 74 59.8" xml:space="preserve">
<path fill="#D81637" d="M26.6,19.2v1.5c0,0.3-0.3,0.5-0.6,0.5c-0.2,0-0.4-0.2-0.5-0.5v-1.5c0-0.3,0.2-0.6,0.5-0.6s0.6,0.2,0.6,0.5
	C26.6,19.1,26.6,19.1,26.6,19.2z M31.7,35.5c-0.3,0-0.5,0.2-0.5,0.5c0,0,0,0,0,0.1v1.5c0,0.3,0.2,0.6,0.5,0.6s0.6-0.2,0.6-0.5v-0.1
	V36C32.3,35.7,32,35.5,31.7,35.5z M31.7,18.6c-0.3,0-0.5,0.2-0.5,0.5c0,0,0,0,0,0.1v1.5c0,0.3,0.3,0.5,0.6,0.5
	c0.2,0,0.4-0.2,0.5-0.5v-1.5C32.3,18.9,32,18.7,31.7,18.6z M31.7,29.9c-0.3,0-0.5,0.2-0.5,0.5c0,0,0,0,0,0.1V32
	c0,0.3,0.3,0.5,0.6,0.5c0.2,0,0.4-0.2,0.5-0.5v-1.5C32.3,30.1,32,29.9,31.7,29.9z M31.7,24.2c-0.3,0-0.5,0.2-0.5,0.5c0,0,0,0,0,0.1
	v1.5c0,0.3,0.2,0.6,0.5,0.6s0.6-0.2,0.6-0.5v-0.1v-1.5C32.3,24.5,32,24.2,31.7,24.2z M26.1,24.2c-0.3,0-0.5,0.2-0.5,0.5
	c0,0,0,0,0,0.1v1.5c0,0.3,0.2,0.6,0.5,0.6s0.6-0.2,0.6-0.5v-0.1v-1.5C26.6,24.5,26.4,24.2,26.1,24.2L26.1,24.2L26.1,24.2z
	 M13.2,26.5v7.8H4.1v-7.7c0-1.3,0.8-1.8,2-1.7c1.6,0.1,3.3,0.1,4.9,0C12.5,24.8,13.2,25.2,13.2,26.5z M10.9,29.7
	c0-1.2-1-2.2-2.2-2.2s-2.2,1-2.1,2.2c0,0,0,0,0,0.1c0,1.2,1,2.2,2.2,2.2s2.1-0.9,2.1-2.1C10.9,29.8,10.9,29.7,10.9,29.7z M9.2,40.9
	v-5.7l-5.7,5.7H9.2z M2.2,28.9c-0.4,0-0.8,0.3-0.8,0.8s0.3,0.8,0.8,0.8S3,30.2,3,29.7S2.6,28.9,2.2,28.9z M26,35.5
	c-0.3,0-0.5,0.2-0.5,0.5c0,0,0,0,0,0.1v1.5c0,0.3,0.2,0.6,0.5,0.6s0.6-0.2,0.6-0.5v-0.1V36C26.6,35.7,26.4,35.5,26,35.5
	C26.1,35.5,26.1,35.5,26,35.5z M26,41.1c-0.3,0-0.5,0.2-0.5,0.5c0,0,0,0,0,0.1v1.5c0,0.3,0.3,0.5,0.6,0.5c0.2,0,0.4-0.2,0.5-0.5
	v-1.5C26.6,41.4,26.4,41.2,26,41.1C26.1,41.1,26.1,41.1,26,41.1z M26,29.9c-0.3,0-0.5,0.2-0.5,0.5c0,0,0,0,0,0.1V32
	c0,0.3,0.3,0.5,0.6,0.5c0.2,0,0.4-0.2,0.5-0.5v-1.5C26.6,30.1,26.4,29.9,26,29.9C26.1,29.9,26.1,29.9,26,29.9z M31.7,41.1
	c-0.3,0-0.5,0.2-0.5,0.5c0,0,0,0,0,0.1v1.5c0,0.3,0.3,0.5,0.6,0.5c0.2,0,0.4-0.2,0.5-0.5v-1.5C32.2,41.4,32,41.2,31.7,41.1
	L31.7,41.1z M43,18.6c-0.3,0-0.5,0.2-0.5,0.5c0,0,0,0,0,0.1v1.5c0,0.3,0.3,0.5,0.6,0.5c0.2,0,0.4-0.2,0.5-0.5v-1.5
	C43.6,18.9,43.4,18.7,43,18.6C43.1,18.6,43.1,18.6,43,18.6z M43,29.9c-0.3,0-0.5,0.2-0.5,0.5c0,0,0,0,0,0.1V32
	c0,0.3,0.3,0.5,0.6,0.5c0.2,0,0.4-0.2,0.5-0.5v-1.5C43.6,30.1,43.4,29.9,43,29.9C43.1,29.9,43.1,29.9,43,29.9z M48.7,35.5
	c-0.3,0-0.5,0.2-0.5,0.5c0,0,0,0,0,0.1v1.5c0,0.3,0.2,0.5,0.5,0.5c0,0,0,0,0.1,0c0.3,0,0.5-0.2,0.5-0.5c0,0,0,0,0-0.1V36
	C49.3,35.7,49.1,35.5,48.7,35.5L48.7,35.5L48.7,35.5z M43,24.2c-0.3,0-0.5,0.2-0.5,0.5c0,0,0,0,0,0.1v1.5c0,0.3,0.2,0.6,0.5,0.6
	s0.6-0.2,0.6-0.5v-0.1v-1.5C43.6,24.5,43.4,24.2,43,24.2C43.1,24.2,43.1,24.2,43,24.2z M48.7,41.1c-0.3,0-0.5,0.2-0.5,0.5
	c0,0,0,0,0,0.1v1.5c0,0.3,0.2,0.5,0.5,0.5c0,0,0,0,0.1,0c0.3,0,0.5-0.2,0.5-0.5c0,0,0,0,0-0.1v-1.5C49.3,41.4,49.1,41.2,48.7,41.1
	L48.7,41.1L48.7,41.1z M70,26.5v7.8h-9.1v-7.7c0-1.3,0.8-1.8,2-1.7c1.6,0.1,3.3,0.1,4.9,0C69.2,24.8,70,25.2,70,26.5z M67.7,29.7
	c0-1.2-1-2.2-2.2-2.2s-2.2,1-2.2,2.2l0,0c0,1.2,1,2.2,2.2,2.2C66.7,31.9,67.7,30.9,67.7,29.7z M48.7,18.7c-0.3,0-0.5,0.2-0.5,0.5
	c0,0,0,0,0,0.1v1.5c0,0.3,0.2,0.5,0.5,0.5c0,0,0,0,0.1,0c0.3,0,0.5-0.2,0.5-0.5c0,0,0,0,0-0.1v-1.5c0-0.3-0.2-0.5-0.4-0.6
	C48.8,18.6,48.7,18.6,48.7,18.7L48.7,18.7z M48.7,29.9c-0.3,0-0.5,0.2-0.5,0.5c0,0,0,0,0,0.1V32c0,0.3,0.2,0.5,0.5,0.5
	c0,0,0,0,0.1,0c0.3,0,0.5-0.2,0.5-0.5c0,0,0,0,0-0.1v-1.5c0-0.3-0.2-0.5-0.4-0.6C48.8,29.9,48.7,29.9,48.7,29.9L48.7,29.9z
	 M48.7,24.2c-0.3,0-0.5,0.2-0.5,0.5c0,0,0,0,0,0.1v1.5c0,0.3,0.2,0.5,0.5,0.5c0,0,0,0,0.1,0c0.3,0,0.5-0.2,0.5-0.5c0,0,0,0,0-0.1
	v-1.5c0-0.3-0.2-0.5-0.4-0.6C48.8,24.2,48.7,24.2,48.7,24.2L48.7,24.2z M37.3,29.9c-0.3,0-0.5,0.2-0.5,0.5c0,0,0,0,0,0.1V32
	c0,0.3,0.3,0.5,0.6,0.5c0.2,0,0.4-0.2,0.5-0.5v-1.5C37.9,30.1,37.7,29.9,37.3,29.9C37.4,29.9,37.3,29.9,37.3,29.9z M37.3,35.5
	c-0.3,0-0.5,0.2-0.5,0.5c0,0,0,0,0,0.1v1.5c0,0.3,0.2,0.6,0.5,0.6s0.6-0.2,0.6-0.5v-0.1V36C37.9,35.7,37.7,35.5,37.3,35.5
	C37.4,35.5,37.3,35.5,37.3,35.5z M71.2,29.7c0,0.4,0.3,0.8,0.8,0.8s0.8-0.3,0.8-0.8s-0.3-0.8-0.8-0.8C71.5,29,71.2,29.3,71.2,29.7z
	 M37.3,41.1c-0.3,0-0.5,0.2-0.5,0.5c0,0,0,0,0,0.1v1.5c0,0.3,0.3,0.5,0.6,0.5c0.2,0,0.4-0.2,0.5-0.5v-1.5
	C37.9,41.4,37.7,41.2,37.3,41.1C37.4,41.1,37.3,41.1,37.3,41.1z M74,4.7v50.6c0,2.6-2.1,4.7-4.7,4.7H4.7C2.1,60,0,57.9,0,55.3V4.7
	C0.1,2.1,2.2,0,4.7,0h64.5C71.8,0,73.9,2.1,74,4.7z M9.4,50.4c0-1.6-1.3-2.9-2.9-2.9s-2.9,1.3-2.9,2.9c0,1.6,1.3,2.9,2.9,2.9l0,0
	C8,53.2,9.3,51.9,9.4,50.4z M23.9,50.4c0-1.6-1.3-2.9-2.9-2.9s-2.9,1.3-2.9,2.9c0,1.6,1.3,2.9,2.9,2.9l0,0
	C22.6,53.2,23.9,51.9,23.9,50.4z M40,50.4c0-1.6-1.3-2.9-2.9-2.9s-2.9,1.3-2.9,2.9c0,1.6,1.3,2.9,2.9,2.9l0,0
	C38.7,53.2,40,52,40,50.4L40,50.4z M56,50.4c0-1.6-1.3-2.9-2.9-2.9c-1.6,0-2.9,1.3-2.9,2.9c0,1.6,1.3,2.9,2.8,2.9
	C54.6,53.2,55.9,51.9,56,50.4L56,50.4z M70.6,50.4c0-1.6-1.3-2.9-2.9-2.9s-2.9,1.3-2.9,2.9c0,1.6,1.3,2.9,2.9,2.9l0,0
	C69.2,53.2,70.5,51.9,70.6,50.4L70.6,50.4z M73,4.7c0-1-0.4-2-1.2-2.7c-2.5,2.5-5,4.9-7.6,7.5V1.1h-0.1c-2.9,2.9-5.7,5.8-8.6,8.6
	c-0.1-0.1-0.2-0.1-0.3-0.2V1.1h-0.1L37.5,18.6l-0.2-0.2L37.2,14h3c2-0.1,3.6-1.6,3.8-3.6c0.1-1.1-0.3-2.2-1.1-3
	c-0.8-0.7-1.8-1.2-2.9-1.2h-3l-0.2-5h-0.3C30.6,7,24.9,12.9,19,18.8c-0.1,0-0.2-0.1-0.2-0.1V1.2h-0.5C12.6,6.8,6.8,12.5,1,18.3v37
	c0,0.5,0.1,1,0.3,1.4V53h1.2v5.2c0.1,0.1,0.2,0.1,0.3,0.2v-8.2c0-1.5,1-2.9,2.5-3.3c1.4-0.4,3,0.1,3.8,1.4c0.4,0.7,0.6,1.5,0.6,2.2
	c0.1,2.7,0,5.2,0,7.9v0.4h0.6v-6h1.2v6h0.4V53h1.3v5.9h0.3v-6H15v6h0.3V53h1.3v5.9h0.8v-8.2c0-0.5,0-1,0.2-1.5
	c0.6-1.8,2.5-2.8,4.4-2.2c1.4,0.5,2.4,1.8,2.4,3.3V59H25v-5.9h1.3V59h0.4c0.1-1.9-0.1-4,0.1-6H28v6h0.3v-5.9h1.3V59H30v-5.9h1.4V59
	h0.3v-5.9h1.2c0,0.3,0.1,0.7,0.1,1V59h0.7v-8.6c-0.1-1.5,0.9-2.9,2.4-3.4s3.1,0.1,4,1.4c0.3,0.7,0.5,1.4,0.5,2.1c0.1,2.5,0,5,0,7.5
	v1h0.6v-5.9h1.2V59h0.4v-5c0-1.1,0-1.1,1.3-0.9V59h0.3v-5.9h1.3V59H46v-5.9h1.3V59h0.3v-5.9h1.3V59h0.8v-8.4c0-2.2,1.4-3.6,3.3-3.6
	c1.9-0.1,3.5,1.4,3.5,3.3c0,0.1,0,0.3,0,0.4v8.5h0.7v-4.9c0-1.1,0-1.1,1.3-1v5.9h0.3v-5.8C60,53,60,53,60,54.1v5h0.3
	c0.2-1.9,0.1-4,0.2-6h1.2v6h0.4v-5c0-0.9,0.2-1.1,1.2-0.9v5.9H64v-8.6c0-1.9,1.5-3.4,3.4-3.5c1.1,0,2.2,0.5,2.8,1.5
	c0.4,0.7,0.6,1.5,0.6,2.2c0.1,2.6,0,5.2,0,7.8v0.1c0.1-0.1,0.3-0.2,0.4-0.3v-4.2c0-1.1,0-1.1,1.2-1v3.5c0.1-0.4,0.2-0.9,0.2-1.3V4.7
	H73z M65.6,23.4c1.7-1.6,3.3-3.3,4.8-4.8h-4.8V23.4z M43,35.5c-0.3,0-0.5,0.2-0.5,0.5c0,0,0,0,0,0.1v1.5c0,0.3,0.2,0.6,0.5,0.6
	s0.6-0.2,0.6-0.5v-0.1V36C43.6,35.7,43.4,35.5,43,35.5C43.1,35.5,43.1,35.5,43,35.5z M37.3,18.6c-0.3,0-0.5,0.2-0.5,0.5
	c0,0,0,0,0,0.1v1.5c0,0.3,0.3,0.5,0.6,0.5c0.2,0,0.4-0.2,0.5-0.5v-1.5C37.9,18.9,37.7,18.7,37.3,18.6C37.4,18.6,37.3,18.6,37.3,18.6
	z M43,41.1c-0.3,0-0.5,0.2-0.5,0.5c0,0,0,0,0,0.1v1.5c0,0.3,0.3,0.5,0.6,0.5c0.2,0,0.4-0.2,0.5-0.5v-1.5
	C43.6,41.4,43.4,41.2,43,41.1C43.1,41.1,43.1,41.1,43,41.1z M37.3,24.2c-0.3,0-0.5,0.2-0.5,0.5c0,0,0,0,0,0.1v1.5
	c0,0.3,0.2,0.6,0.5,0.6s0.6-0.2,0.6-0.5v-0.1v-1.5C37.9,24.5,37.7,24.2,37.3,24.2C37.4,24.2,37.3,24.2,37.3,24.2z M37.4,13.5H34
	c-1.8,0.1-3.4-1.4-3.4-3.2c0-0.2,0-0.3,0-0.5c0.1-1.7,1.5-3.1,3.2-3.2h6.1c1.8-0.1,3.4,1.4,3.4,3.2c0,0.1,0,0.3,0,0.4
	c-0.1,1.7-1.5,3.1-3.2,3.2h-2.7V13.5z M34.1,12.1H40c1.1,0,1.9-0.8,1.9-1.9l0,0C42,9.6,41.8,9,41.4,8.6c-0.4-0.4-1-0.7-1.6-0.6h-5.9
	C32.8,8,32,8.8,32,9.9l0,0c-0.1,0.6,0.1,1.2,0.5,1.6C32.9,11.9,33.5,12.1,34.1,12.1z M39.8,10.7c0.4,0,0.6-0.3,0.6-0.6
	s-0.3-0.6-0.6-0.6c-0.4,0-0.6,0.3-0.6,0.6l0,0C39.2,10.4,39.4,10.7,39.8,10.7z M34.2,9.3c-0.3,0-0.6,0.2-0.6,0.6c0,0,0,0,0,0.1
	c0,0.4,0.3,0.6,0.6,0.6c0.4,0,0.6-0.3,0.6-0.6l0,0C34.8,9.6,34.6,9.3,34.2,9.3z"/>
</svg>
