<?xml version="1.0" encoding="utf-8"?>
<!-- Generator: Adobe Illustrator 22.1.0, SVG Export Plug-In . SVG Version: 6.00 Build 0)  -->
<svg version="1.1" id="Layer_3_copy" xmlns="http://www.w3.org/2000/svg" xmlns:xlink="http://www.w3.org/1999/xlink" x="0px"
	 y="0px" width="80px" height="36px" viewBox="0 0 80 36" enable-background="new 0 0 80 36" xml:space="preserve">
<path fill="#FFFFFF" d="M80,36H0V0h80V36z M12.4,10.4l-8.4,1c0.7,2,1.1,4.1,1.1,6.2c0,2.1-0.4,4.2-1.1,6.2l8.4,1
	C14.1,20.2,14.1,15,12.4,10.4L12.4,10.4z M32.5,8l-8.4,1c2.1,5.6,2.1,11.7,0,17.3l8.4,1C34.9,21.1,34.9,14.2,32.5,8z M52.8,5.5
	l-8.4,1c1.3,3.6,2,7.4,2,11.2c0,3.8-0.7,7.6-2,11.2l8.4,1c1.4-3.9,2.2-8,2.2-12.2C54.9,13.5,54.2,9.4,52.8,5.5z M72.9,3l-8.4,1
	c1.6,4.4,2.4,9,2.4,13.6c0,4.7-0.8,9.3-2.4,13.6l8.4,1c1.7-4.7,2.6-9.7,2.6-14.7C75.5,12.6,74.6,7.7,72.9,3z"/>
</svg>
