<?xml version="1.0" encoding="utf-8"?>
<!-- Generator: Adobe Illustrator 22.1.0, SVG Export Plug-In . SVG Version: 6.00 Build 0)  -->
<svg version="1.1" id="Layer_3_copy" xmlns="http://www.w3.org/2000/svg" xmlns:xlink="http://www.w3.org/1999/xlink" x="0px"
	 y="0px" width="32px" height="32px" viewBox="0 0 32 32" enable-background="new 0 0 32 32" xml:space="preserve">
<title>panel</title>
<path fill="#FFFFFF" d="M15.8,27.5c-0.5,0-1-0.4-1-0.9c0,0,0-0.1,0-0.1v-8.2l-4.2,3.8l-1.3-1.5l5.3-4.8L9.2,11l1.4-1.5l4.2,3.8V5.4
	c0-0.6,0.4-1,1-1c0.3,0,0.5,0.1,0.7,0.3l5.9,5.3c0.4,0.4,0.4,1,0.1,1.4l-0.1,0.1l-4.9,4.4l4.9,4.5c0.4,0.4,0.4,1,0.1,1.4l-0.1,0.1
	l-5.9,5.4C16.3,27.5,16.1,27.5,15.8,27.5z M16.8,17.9v6.3l3.4-3.1L16.8,17.9z M16.8,7.7v6.1l3.4-3.1L16.8,7.7z"/>
</svg>
