<?xml version="1.0" encoding="utf-8"?>
<!-- Generator: Adobe Illustrator 22.1.0, SVG Export Plug-In . SVG Version: 6.00 Build 0)  -->
<svg version="1.1" id="Layer_1" xmlns="http://www.w3.org/2000/svg" xmlns:xlink="http://www.w3.org/1999/xlink" x="0px" y="0px"
	 width="75px" height="60px" viewBox="0 0 75 60" enable-background="new 0 0 75 60" xml:space="preserve">
<g>
	<g>
		<path fill="#FFFFFF" d="M64.4,20.6c-5.5,0-10-4.5-10-10s4.5-10,10-10s10,4.5,10,10S69.9,20.6,64.4,20.6z"/>
		<path fill="#FF9000" d="M64.4,21.2c-5.9,0-10.6-4.8-10.6-10.6S58.6,0,64.4,0S75,4.7,75,10.6S70.2,21.2,64.4,21.2z M64.4,1.2
			c-5.2,0-9.4,4.2-9.4,9.4s4.2,9.4,9.4,9.4s9.4-4.2,9.4-9.4S69.5,1.2,64.4,1.2z"/>
	</g>
	<path fill="#FF9000" d="M63.4,19l1.2-1.2l3.5-3.5l0.5-0.5l-0.5-0.6l-2.9-2.8l2.9-2.8l0.5-0.5l-0.5-0.5l-3.5-3.4L63.4,2v1.6v5
		l-2.2-2.2l-1,1l3.1,3l-3.1,3l1,1l2.2-2.2v5C63.4,17.2,63.4,19,63.4,19z M64.8,15.6v-3.5l1.8,1.8L64.8,15.6z M64.8,9V5.5l1.8,1.8
		L64.8,9z"/>
</g>
</svg>
