<?xml version="1.0" encoding="utf-8"?>
<!-- Generator: Adobe Illustrator 22.1.0, SVG Export Plug-In . SVG Version: 6.00 Build 0)  -->
<svg version="1.1" id="Layer_1" xmlns="http://www.w3.org/2000/svg" xmlns:xlink="http://www.w3.org/1999/xlink" x="0px" y="0px"
	 width="75px" height="60px" viewBox="0 0 75 60" enable-background="new 0 0 75 60" xml:space="preserve">
<g transform="translate(0,-952.36218)">
	<circle fill="#FFAA00" cx="65" cy="962.4" r="10"/>
	<path fill="#FFFFFF" d="M65.9,962.2l2.9-2.8l0.5-0.5l-0.5-0.5l-3.5-3.5l-1.2-1.2v1.6v5l-2.3-2.2l-1,1l3.1,3l-3.1,3l1,1l2.3-2.2v5
		v1.9l1.2-1.2l3.5-3.5l0.5-0.5l-0.5-0.5L65.9,962.2z M65.5,957.4l1.8,1.8l-1.8,1.8V957.4z M65.5,967.5V964l1.8,1.8L65.5,967.5z"/>
</g>
</svg>
