<?xml version="1.0" encoding="utf-8"?>
<!-- Generator: Adobe Illustrator 22.1.0, SVG Export Plug-In . SVG Version: 6.00 Build 0)  -->
<svg version="1.1" id="rest" xmlns="http://www.w3.org/2000/svg" xmlns:xlink="http://www.w3.org/1999/xlink" x="0px" y="0px"
	 width="32px" height="64px" viewBox="0 0 32 64" style="enable-background:new 0 0 32 64;" xml:space="preserve">
<style type="text/css">
	.st0{fill:#FFFFFF;stroke:#000000;stroke-width:0.7489;stroke-linecap:round;stroke-linejoin:round;stroke-opacity:0.2;}
</style>
<path class="st0" d="M26.7,27.8c-1-1-2.8-1-3.8,0L18.7,32V16.7c0-1.5-1.2-2.7-2.7-2.7s-2.7,1.2-2.7,2.7v15.4L9,27.9
	c-1-1-2.9-1-3.9,0c-0.5,0.5-0.8,1.2-0.8,1.9s0.3,1.4,0.8,1.9l8.9,8.9c1,1,2.9,1,3.9,0l8.9-8.9c0.5-0.5,0.8-1.2,0.8-1.9
	C27.5,29,27.2,28.4,26.7,27.8z"/>
</svg>
