<?xml version="1.0" encoding="utf-8"?>
<!-- Generator: Adobe Illustrator 22.1.0, SVG Export Plug-In . SVG Version: 6.00 Build 0)  -->
<svg version="1.1" id="Layer_1" xmlns="http://www.w3.org/2000/svg" xmlns:xlink="http://www.w3.org/1999/xlink" x="0px" y="0px"
	 width="60px" height="48px" viewBox="0 0 60 48" enable-background="new 0 0 60 48" xml:space="preserve">
<path fill="#51AEE2" d="M21.7,15.3v1.2c0,0.2-0.2,0.4-0.4,0.4c-0.2,0-0.4-0.2-0.4-0.4v-1.2c0-0.2,0.2-0.4,0.4-0.4
	C21.5,14.9,21.7,15.1,21.7,15.3z M25.8,28.4c-0.2,0-0.4,0.2-0.4,0.4V30c0,0.2,0.2,0.4,0.4,0.4c0.2,0,0.4-0.2,0.4-0.4v-1.2
	C26.2,28.6,26,28.4,25.8,28.4z M25.8,14.9c-0.2,0-0.4,0.2-0.4,0.4v1.2c0,0.2,0.2,0.4,0.4,0.4c0.2,0,0.4-0.2,0.4-0.4v-1.2
	C26.2,15.1,26,14.9,25.8,14.9z M25.8,23.9c-0.2,0-0.4,0.2-0.4,0.4v1.2c0,0.2,0.2,0.4,0.4,0.4c0.2,0,0.4-0.2,0.4-0.4v-1.2
	C26.2,24.1,26,23.9,25.8,23.9z M25.8,19.4c-0.2,0-0.4,0.2-0.4,0.4v1.2c0,0.2,0.2,0.4,0.4,0.4c0.2,0,0.4-0.2,0.4-0.4v-1.2
	C26.2,19.6,26,19.4,25.8,19.4z M21.3,19.4c-0.2,0-0.4,0.2-0.4,0.4v1.2c0,0.2,0.2,0.4,0.4,0.4c0.2,0,0.4-0.2,0.4-0.4v-1.2
	C21.7,19.6,21.5,19.4,21.3,19.4z M10.9,21.2c0,2,0,4.1,0,6.2H3.7c0-0.3,0-0.5,0-0.8c0-1.8,0-3.6,0-5.4c0-1.1,0.6-1.5,1.7-1.4
	c1.3,0.1,2.7,0.1,4,0C10.4,19.8,10.9,20.2,10.9,21.2z M9.1,23.8c0-1-0.8-1.8-1.8-1.8s-1.8,0.8-1.8,1.8s0.8,1.8,1.8,1.8
	S9.1,24.7,9.1,23.8z M7.8,32.7v-4.6l-4.5,4.6H7.8z M2.2,23.2c-0.3,0-0.6,0.3-0.6,0.6c0,0.3,0.3,0.6,0.6,0.6c0.3,0,0.6-0.3,0.6-0.6
	C2.8,23.4,2.5,23.2,2.2,23.2z M21.3,28.4c-0.2,0-0.4,0.2-0.4,0.4V30c0,0.2,0.2,0.4,0.4,0.4c0.2,0,0.4-0.2,0.4-0.4v-1.2
	C21.7,28.6,21.5,28.4,21.3,28.4z M21.3,32.9c-0.2,0-0.4,0.2-0.4,0.4v1.2c0,0.2,0.2,0.4,0.4,0.4c0.2,0,0.4-0.2,0.4-0.4v-1.2
	C21.7,33.1,21.5,32.9,21.3,32.9z M21.3,23.9c-0.2,0-0.4,0.2-0.4,0.4v1.2c0,0.2,0.2,0.4,0.4,0.4c0.2,0,0.4-0.2,0.4-0.4v-1.2
	C21.7,24.1,21.5,23.9,21.3,23.9z M25.8,32.9c-0.2,0-0.4,0.2-0.4,0.4v1.2c0,0.2,0.2,0.4,0.4,0.4c0.2,0,0.4-0.2,0.4-0.4v-1.2
	C26.2,33.1,26,32.9,25.8,32.9z M34.8,14.9c-0.2,0-0.4,0.2-0.4,0.4v1.2c0,0.2,0.2,0.4,0.4,0.4c0.2,0,0.4-0.2,0.4-0.4v-1.2
	C35.2,15.1,35,14.9,34.8,14.9z M34.8,23.9c-0.2,0-0.4,0.2-0.4,0.4v1.2c0,0.2,0.2,0.4,0.4,0.4c0.2,0,0.4-0.2,0.4-0.4v-1.2
	C35.2,24.1,35,23.9,34.8,23.9z M39.3,28.4c-0.2,0-0.4,0.2-0.4,0.4V30c0,0.2,0.2,0.4,0.4,0.4s0.4-0.2,0.4-0.4v-1.2
	C39.7,28.6,39.6,28.4,39.3,28.4z M34.8,19.4c-0.2,0-0.4,0.2-0.4,0.4v1.2c0,0.2,0.2,0.4,0.4,0.4c0.2,0,0.4-0.2,0.4-0.4v-1.2
	C35.2,19.6,35,19.4,34.8,19.4z M39.3,32.9c-0.2,0-0.4,0.2-0.4,0.4v1.2c0,0.2,0.2,0.4,0.4,0.4s0.4-0.2,0.4-0.4v-1.2
	C39.7,33.1,39.6,32.9,39.3,32.9z M56.4,21.2c0,2,0,4.1,0,6.2h-7.3c0-0.3,0-0.5,0-0.8c0-1.8,0-3.6,0-5.4c0-1.1,0.6-1.5,1.7-1.4
	c1.3,0.1,2.7,0.1,4,0C55.8,19.8,56.4,20.2,56.4,21.2z M54.5,23.8c0-1-0.8-1.8-1.8-1.8c-1,0-1.8,0.8-1.8,1.8s0.8,1.8,1.8,1.8
	C53.8,25.5,54.5,24.7,54.5,23.8z M39.3,14.9c-0.2,0-0.4,0.2-0.4,0.4v1.2c0,0.2,0.2,0.4,0.4,0.4s0.4-0.2,0.4-0.4v-1.2
	C39.7,15.1,39.6,14.9,39.3,14.9z M39.3,23.9c-0.2,0-0.4,0.2-0.4,0.4v1.2c0,0.2,0.2,0.4,0.4,0.4s0.4-0.2,0.4-0.4v-1.2
	C39.7,24.1,39.6,23.9,39.3,23.9z M39.3,19.4c-0.2,0-0.4,0.2-0.4,0.4v1.2c0,0.2,0.2,0.4,0.4,0.4s0.4-0.2,0.4-0.4v-1.2
	C39.7,19.6,39.6,19.4,39.3,19.4z M30.3,23.9c-0.2,0-0.4,0.2-0.4,0.4v1.2c0,0.2,0.2,0.4,0.4,0.4s0.4-0.2,0.4-0.4v-1.2
	C30.7,24.1,30.5,23.9,30.3,23.9z M30.3,28.4c-0.2,0-0.4,0.2-0.4,0.4V30c0,0.2,0.2,0.4,0.4,0.4s0.4-0.2,0.4-0.4v-1.2
	C30.7,28.6,30.5,28.4,30.3,28.4z M57.3,23.8c0,0.3,0.3,0.6,0.6,0.6c0.3,0,0.6-0.3,0.6-0.6c0-0.3-0.3-0.6-0.6-0.6
	C57.6,23.2,57.3,23.4,57.3,23.8z M30.3,32.9c-0.2,0-0.4,0.2-0.4,0.4v1.2c0,0.2,0.2,0.4,0.4,0.4s0.4-0.2,0.4-0.4v-1.2
	C30.7,33.1,30.5,32.9,30.3,32.9z M59.6,3.8v40.5c0,2.1-1.7,3.8-3.8,3.8H4.2c-2.1,0-3.8-1.7-3.8-3.8V3.8C0.4,1.7,2.1,0,4.2,0h51.6
	C57.9,0,59.6,1.7,59.6,3.8z M7.9,40.2c0-1.3-1-2.3-2.3-2.3s-2.3,1-2.3,2.3s1,2.3,2.3,2.3S7.9,41.5,7.9,40.2z M19.5,40.2
	c0-1.3-1-2.3-2.3-2.3s-2.3,1-2.3,2.3s1,2.3,2.3,2.3S19.5,41.5,19.5,40.2z M32.4,40.2c0-1.3-1-2.3-2.3-2.3c-1.3,0-2.3,1-2.3,2.3
	s1,2.3,2.3,2.3C31.3,42.6,32.4,41.5,32.4,40.2z M45.2,40.2c0-1.3-1-2.3-2.3-2.3s-2.3,1-2.3,2.3s1,2.3,2.3,2.3S45.2,41.5,45.2,40.2z
	 M56.8,40.2c0-1.3-1-2.3-2.3-2.3s-2.3,1-2.3,2.3s1,2.3,2.3,2.3S56.8,41.5,56.8,40.2z M58.8,3.8c0-0.9-0.4-1.6-0.9-2.2
	c-2,2-4.1,3.9-6.1,6c0-2.3,0-4.5,0-6.8h-0.1c-2.3,2.3-4.6,4.6-6.9,6.9c-0.1-0.1-0.2-0.1-0.3-0.2c0-2.3,0-4.5,0-6.7h-0.1
	c-4.7,4.7-9.4,9.4-14.1,14.1c0-0.1-0.1-0.1-0.1-0.2l-0.1-3.5c0.1,0,0.2,0,0.2,0c0.9,0,1.8,0,2.1,0c1.6,0,2.9-1.3,3-2.9
	c0.1-0.9-0.2-1.8-0.8-2.4c-0.6-0.6-1.4-1-2.3-1c-0.9,0-1.1,0-1.4,0c-0.2,0-0.5,0-0.9,0l-0.1-4h-0.2c-4.7,4.7-9.3,9.4-14,14.1
	c-0.1,0-0.1-0.1-0.2-0.1c0-4.6,0-9.3,0-14H15c0,0,0,0,0,0C10.4,5.4,5.8,10,1.2,14.6v29.6c0,0.4,0.1,0.8,0.2,1.1c0-1,0-1.9,0-2.9
	c0.4,0,0.6,0,1,0c0,1.4,0,2.8,0,4.2c0.1,0.1,0.2,0.1,0.3,0.2c0,0,0-0.1,0-0.1c0-2.2,0-4.4,0-6.5c0-1.3,0.8-2.3,2-2.6
	c1.1-0.3,2.5,0.1,3.1,1.1c0.3,0.5,0.5,1.2,0.5,1.8c0.1,2.1,0,4.2,0,6.3c0,0.1,0,0.3,0,0.4h0.5c0-1.1,0-2.1,0-3.2c0-0.5,0-1,0-1.5
	c0.3,0,0.6,0,1,0c0,0.9,0,1.8,0,2.7c0,0.7,0,1.3,0,2h0.3c0-1.6,0-3.1,0-4.7c0.4,0,0.6,0,1.1,0c0,1.6,0,3.2,0,4.7h0.3
	c0-1.6,0-3.2,0-4.8c0.4,0,0.6,0,1,0c0,1.6,0,3.2,0,4.8h0.3c0-1.6,0-3.1,0-4.8c0.4,0,0.7,0,1,0c0,0.7,0,1.4,0,2.1c0,0.9,0,1.7,0,2.6
	c0,0,0,0,0,0h0.6c0,0,0,0,0,0c0-2.2,0-4.4,0-6.6c0-0.4,0-0.8,0.1-1.2c0.4-1.3,1.6-2,3-1.9c1.3,0.2,2.4,1.3,2.4,2.7
	c0,2.2,0,4.4,0,6.6c0,0.1,0,0.3,0,0.4h0.5c0-1.3,0-2.5,0-3.8c0-0.3,0-0.6,0-0.9c0.3,0,0.6,0,1,0c0,1.6,0,3.2,0,4.7h0.3
	c0.1-1.6-0.1-3.2,0.1-4.8c0.3,0,0.5,0,0.9,0c0,1.6,0,3.2,0,4.8h0.3c0-1.6,0-3.1,0-4.7c0.4,0,0.7,0,1,0c0,1.6,0,3.2,0,4.7h0.2
	c0-1.6,0-3.1,0-4.7c0.4,0,0.7,0,1.1,0c0,1.6,0,3.2,0,4.7h0.2c0-1.6,0-3.1,0-4.7c0.4,0,0.6,0,1,0c0,0.3,0,0.5,0,0.8c0,1.3,0,2.6,0,4
	h0.5c0-2.3,0-4.6,0-6.9c0-1.3,0.8-2.3,1.9-2.7c1.2-0.4,2.5,0.1,3.1,1.2c0.3,0.5,0.4,1.1,0.4,1.7c0.1,2,0,4,0,6c0,0.2,0,0.5,0,0.7
	h0.5c0-1.3,0-2.7,0-4c0-0.2,0-0.5,0-0.8c0.3,0,0.6,0,1,0c0,1.6,0,3.2,0,4.8h0.3c0-1.3,0-2.7,0-4c0-0.8,0-0.8,1-0.7
	c0,1.6,0,3.1,0,4.7h0.2c0-1.6,0-3.1,0-4.7c0.4,0,0.6,0,1,0c0,1.6,0,3.2,0,4.7h0.3c0-1.6,0-3.1,0-4.7c0.4,0,0.6,0,1,0
	c0,1.6,0,3.2,0,4.7h0.3c0-1.6,0-3.1,0-4.7c0.4,0,0.7,0,1,0c0,1.5,0,3,0,4.5c0,0.1,0,0.2,0,0.3h0.6c0-0.1,0-0.1,0-0.2
	c0-2.2,0-4.4,0-6.6c0-1.8,1.1-2.9,2.7-2.9c1.7,0,2.8,1.2,2.8,3c0,2.2,0,4.4,0,6.7c0,0,0,0.1,0,0.1h0.5c0,0,0-0.1,0-0.1
	c0-1.3,0-2.6,0-3.9c0-0.8,0-0.8,1-0.7c0,1.6,0,3.2,0,4.7h0.3c0-1.6,0-3.1,0-4.7c1-0.2,1-0.2,1,0.7c0,1.3,0,2.7,0,4c0,0,0,0,0,0h0.2
	c0.2-1.6,0-3.2,0.1-4.8c0.3,0,0.5,0,0.9,0c0,1.6,0,3.2,0,4.8h0.3c0,0,0-0.1,0-0.1c0-1.3,0-2.6,0-3.9c0-0.7,0.2-0.9,1-0.7
	c0,0.4,0,0.9,0,1.4c0,1.1,0,2.2,0,3.3h0.6c0-2.3,0-4.6,0-6.9c0-1.3,0.7-2.3,1.9-2.7c1.1-0.4,2.5,0,3.1,1c0.3,0.5,0.5,1.2,0.5,1.8
	c0.1,2.1,0,4.2,0,6.3c0,0,0,0.1,0,0.1c0.1-0.1,0.2-0.1,0.3-0.2c0-1.1,0-2.3,0-3.4c0-0.9,0-0.9,1-0.8c0,0.9,0,1.9,0,2.8
	c0.1-0.3,0.2-0.7,0.2-1.1V3.8z M52.9,18.7c1.3-1.3,2.6-2.6,3.9-3.9c-1.2,0-2.5,0-3.9,0C52.9,16.2,52.9,17.4,52.9,18.7z M34.8,28.4
	c-0.2,0-0.4,0.2-0.4,0.4V30c0,0.2,0.2,0.4,0.4,0.4c0.2,0,0.4-0.2,0.4-0.4v-1.2C35.2,28.6,35,28.4,34.8,28.4z M30.3,14.9
	c-0.2,0-0.4,0.2-0.4,0.4v1.2c0,0.2,0.2,0.4,0.4,0.4s0.4-0.2,0.4-0.4v-1.2C30.7,15.1,30.5,14.9,30.3,14.9z M34.8,32.9
	c-0.2,0-0.4,0.2-0.4,0.4v1.2c0,0.2,0.2,0.4,0.4,0.4c0.2,0,0.4-0.2,0.4-0.4v-1.2C35.2,33.1,35,32.9,34.8,32.9z M30.3,19.4
	c-0.2,0-0.4,0.2-0.4,0.4v1.2c0,0.2,0.2,0.4,0.4,0.4s0.4-0.2,0.4-0.4v-1.2C30.7,19.6,30.5,19.4,30.3,19.4z M30.4,10.8
	c-0.9,0-1.9,0-2.7,0c-1.7,0-2.9-1.3-2.8-2.9c0.1-1.4,1.2-2.5,2.6-2.5c0.3,0,0.7,0,1.1,0c0.6,0,1.2,0,1.2,0c0.9,0,1.1,0,1.4,0
	c0.2,0,0.5,0,1.1,0c1.7,0,2.9,1.3,2.8,2.9c-0.1,1.4-1.2,2.5-2.6,2.5C32.1,10.8,31.3,10.8,30.4,10.8z M27.7,9.7c0.7,0,1.7,0,2.7,0
	c1,0,1.7,0,2.1,0c0.8,0,1.5-0.7,1.6-1.5c0-0.5-0.1-1-0.4-1.3c-0.3-0.3-0.7-0.5-1.3-0.5c-0.5,0-0.8,0-1.1,0c-0.1,0-0.2,0-0.3,0
	c-0.2,0-0.5,0-1.1,0h0l0,0c0,0-0.6,0-1.2,0c-0.5,0-0.8,0-1.1,0C26.7,6.4,26,7,26,7.9c0,0.5,0.1,1,0.4,1.3
	C26.7,9.5,27.2,9.7,27.7,9.7z M32.2,8.6c0.3,0,0.5-0.2,0.5-0.5c0-0.3-0.2-0.5-0.5-0.5c-0.3,0-0.5,0.2-0.5,0.5
	C31.7,8.3,31.9,8.6,32.2,8.6z M27.7,7.5c-0.3,0-0.5,0.2-0.5,0.5c0,0.3,0.2,0.5,0.5,0.5c0.3,0,0.5-0.2,0.5-0.5
	C28.3,7.7,28,7.5,27.7,7.5z"/>
</svg>
