<?xml version="1.0" encoding="utf-8"?>
<!-- Generator: Adobe Illustrator 22.1.0, SVG Export Plug-In . SVG Version: 6.00 Build 0)  -->
<svg version="1.1" id="Layer_1" xmlns="http://www.w3.org/2000/svg" xmlns:xlink="http://www.w3.org/1999/xlink" x="0px" y="0px"
	 width="75px" height="60px" viewBox="0 0 75 60" enable-background="new 0 0 75 60" xml:space="preserve">
<path fill="#FFFFFF" d="M24.8,21.9v1.4c0,0.3-0.2,0.5-0.5,0.5s-0.5-0.2-0.5-0.5v-1.4c0-0.3,0.2-0.5,0.5-0.5S24.8,21.6,24.8,21.9z
	 M29.6,37.1c-0.3,0-0.5,0.2-0.5,0.5V39c0,0.3,0.2,0.5,0.5,0.5s0.5-0.2,0.5-0.5v-1.4C30.1,37.3,29.8,37.1,29.6,37.1z M29.6,21.4
	c-0.3,0-0.5,0.2-0.5,0.5v1.4c0,0.3,0.2,0.5,0.5,0.5s0.5-0.2,0.5-0.5v-1.4C30.1,21.6,29.8,21.4,29.6,21.4z M29.6,31.9
	c-0.3,0-0.5,0.2-0.5,0.5v1.4c0,0.3,0.2,0.5,0.5,0.5s0.5-0.2,0.5-0.5v-1.4C30.1,32.1,29.8,31.9,29.6,31.9z M29.6,26.6
	c-0.3,0-0.5,0.2-0.5,0.5v1.4c0,0.3,0.2,0.5,0.5,0.5s0.5-0.2,0.5-0.5v-1.4C30.1,26.8,29.8,26.6,29.6,26.6z M24.3,26.6
	c-0.3,0-0.5,0.2-0.5,0.5v1.4c0,0.3,0.2,0.5,0.5,0.5s0.5-0.2,0.5-0.5v-1.4C24.8,26.8,24.6,26.6,24.3,26.6z M12.3,28.7
	c0,2.4,0,4.7,0,7.3H3.8c0-0.3,0-0.6,0-0.9c0-2.1,0-4.2,0-6.3c0-1.2,0.7-1.7,1.9-1.6c1.5,0.1,3.1,0.1,4.6,0
	C11.6,27.1,12.3,27.5,12.3,28.7z M10.1,31.7c0-1.1-0.9-2.1-2.1-2.1s-2,1-2,2.1c0,1.1,0.9,2.1,2.1,2.1S10.1,32.9,10.1,31.7z
	 M8.6,42.2v-5.3l-5.3,5.3H8.6z M2,31c-0.4,0-0.7,0.3-0.7,0.7s0.3,0.7,0.7,0.7c0.4,0,0.7-0.3,0.7-0.7S2.4,31,2,31z M24.3,37.1
	c-0.3,0-0.5,0.2-0.5,0.5V39c0,0.3,0.2,0.5,0.5,0.5s0.5-0.2,0.5-0.5v-1.4C24.8,37.3,24.6,37.1,24.3,37.1z M24.3,42.4
	c-0.3,0-0.5,0.2-0.5,0.5v1.4c0,0.3,0.2,0.5,0.5,0.5s0.5-0.2,0.5-0.5v-1.4C24.8,42.6,24.6,42.4,24.3,42.4z M24.3,31.9
	c-0.3,0-0.5,0.2-0.5,0.5v1.4c0,0.3,0.2,0.5,0.5,0.5s0.5-0.2,0.5-0.5v-1.4C24.8,32.1,24.6,31.9,24.3,31.9z M29.6,42.4
	c-0.3,0-0.5,0.2-0.5,0.5v1.4c0,0.3,0.2,0.5,0.5,0.5s0.5-0.2,0.5-0.5v-1.4C30.1,42.6,29.8,42.4,29.6,42.4z M40.1,21.4
	c-0.3,0-0.5,0.2-0.5,0.5v1.4c0,0.3,0.2,0.5,0.5,0.5s0.5-0.2,0.5-0.5v-1.4C40.6,21.6,40.4,21.4,40.1,21.4z M40.1,31.9
	c-0.3,0-0.5,0.2-0.5,0.5v1.4c0,0.3,0.2,0.5,0.5,0.5s0.5-0.2,0.5-0.5v-1.4C40.6,32.1,40.4,31.9,40.1,31.9z M45.4,37.1
	c-0.3,0-0.5,0.2-0.5,0.5V39c0,0.3,0.2,0.5,0.5,0.5s0.5-0.2,0.5-0.5v-1.4C45.9,37.3,45.7,37.1,45.4,37.1z M40.1,26.6
	c-0.3,0-0.5,0.2-0.5,0.5v1.4c0,0.3,0.2,0.5,0.5,0.5s0.5-0.2,0.5-0.5v-1.4C40.6,26.8,40.4,26.6,40.1,26.6z M45.4,42.4
	c-0.3,0-0.5,0.2-0.5,0.5v1.4c0,0.3,0.2,0.5,0.5,0.5s0.5-0.2,0.5-0.5v-1.4C45.9,42.6,45.7,42.4,45.4,42.4z M65.3,28.7
	c0,2.4,0,4.7,0,7.3h-8.5c0-0.3,0-0.6,0-0.9c0-2.1,0-4.2,0-6.3c0-1.2,0.7-1.7,1.9-1.6c1.5,0.1,3.1,0.1,4.6,0
	C64.6,27.1,65.3,27.5,65.3,28.7z M63.1,31.7c0-1.1-0.9-2.1-2.1-2.1c-1.1,0-2.1,0.9-2.1,2.1s0.9,2.1,2.1,2.1S63.1,32.9,63.1,31.7z
	 M45.4,21.4c-0.3,0-0.5,0.2-0.5,0.5v1.4c0,0.3,0.2,0.5,0.5,0.5s0.5-0.2,0.5-0.5v-1.4C45.9,21.6,45.7,21.4,45.4,21.4z M45.4,31.9
	c-0.3,0-0.5,0.2-0.5,0.5v1.4c0,0.3,0.2,0.5,0.5,0.5s0.5-0.2,0.5-0.5v-1.4C45.9,32.1,45.7,31.9,45.4,31.9z M45.4,26.6
	c-0.3,0-0.5,0.2-0.5,0.5v1.4c0,0.3,0.2,0.5,0.5,0.5s0.5-0.2,0.5-0.5v-1.4C45.9,26.8,45.7,26.6,45.4,26.6z M34.8,31.9
	c-0.3,0-0.5,0.2-0.5,0.5v1.4c0,0.3,0.2,0.5,0.5,0.5s0.5-0.2,0.5-0.5v-1.4C35.3,32.1,35.1,31.9,34.8,31.9z M34.8,37.1
	c-0.3,0-0.5,0.2-0.5,0.5V39c0,0.3,0.2,0.5,0.5,0.5s0.5-0.2,0.5-0.5v-1.4C35.3,37.3,35.1,37.1,34.8,37.1z M66.4,31.7
	c0,0.4,0.3,0.7,0.7,0.7c0.4,0,0.7-0.3,0.7-0.7c0-0.4-0.3-0.7-0.7-0.7C66.7,31,66.4,31.4,66.4,31.7z M34.8,42.4
	c-0.3,0-0.5,0.2-0.5,0.5v1.4c0,0.3,0.2,0.5,0.5,0.5s0.5-0.2,0.5-0.5v-1.4C35.3,42.6,35.1,42.4,34.8,42.4z M69,8.4v47.2
	c0,2.4-2,4.4-4.4,4.4H4.4C2,60,0,58,0,55.6V8.4C0,6,2,4,4.4,4h60.2C67,4,69,6,69,8.4z M8.7,51c0-1.5-1.2-2.7-2.7-2.7
	S3.3,49.5,3.3,51s1.2,2.7,2.7,2.7S8.7,52.4,8.7,51z M22.3,51c0-1.5-1.2-2.7-2.7-2.7s-2.7,1.2-2.7,2.7s1.2,2.7,2.7,2.7
	C21.1,53.7,22.3,52.4,22.3,51z M37.3,51c0-1.5-1.2-2.7-2.7-2.7s-2.7,1.2-2.7,2.7s1.2,2.7,2.7,2.7S37.3,52.4,37.3,51z M52.2,51
	c0-1.5-1.2-2.7-2.7-2.7s-2.7,1.2-2.7,2.7s1.2,2.7,2.7,2.7S52.2,52.4,52.2,51z M65.8,51c0-1.5-1.2-2.7-2.7-2.7s-2.7,1.2-2.7,2.7
	s1.2,2.7,2.7,2.7C64.5,53.7,65.8,52.4,65.8,51z M68.1,8.4c0-1-0.4-1.9-1.1-2.5c-2.3,2.3-4.7,4.6-7.1,7c0-2.7,0-5.3,0-7.9h-0.1
	c-2.7,2.7-5.3,5.4-8,8c-0.1-0.1-0.2-0.1-0.3-0.2c0-2.6,0-5.3,0-7.8h-0.1c-5.5,5.5-11,11-16.4,16.4c-0.1-0.1-0.1-0.1-0.2-0.2
	l-0.1-4.1c0.1,0,0.2,0,0.3,0c1.1,0,2,0,2.5,0c1.9-0.1,3.4-1.5,3.5-3.4c0.1-1.1-0.3-2.1-1-2.8s-1.6-1.1-2.7-1.2c-1.1,0-1.3,0-1.7,0
	c-0.2,0-0.5,0-1.1,0L34.3,5H34c-5.5,5.5-10.8,11-16.3,16.5c-0.1,0-0.2-0.1-0.2-0.1c0-5.4,0-10.8,0-16.3H17l0,0
	c-5.3,5.2-10.7,10.6-16.1,16v34.5c0,0.5,0.1,0.9,0.3,1.3c0-1.1,0-2.2,0-3.4c0.4,0,0.7,0,1.2,0c0,1.6,0,3.3,0,4.9
	c0.1,0.1,0.2,0.1,0.3,0.2v-0.1c0-2.5,0-5.1,0-7.6c0-1.5,0.9-2.7,2.3-3.1c1.3-0.4,2.9,0.1,3.6,1.3c0.4,0.6,0.5,1.4,0.6,2.1
	c0.1,2.5,0,4.9,0,7.4c0,0.1,0,0.3,0,0.4h0.6c0-1.3,0-2.5,0-3.8c0-0.6,0-1.2,0-1.8c0.4,0,0.7,0,1.1,0c0,1,0,2.1,0,3.2
	c0,0.8,0,1.6,0,2.4h0.4c0-1.8,0-3.7,0-5.5c0.5,0,0.8,0,1.2,0c0,1.8,0,3.7,0,5.5h0.3c0-1.8,0-3.7,0-5.6c0.4,0,0.7,0,1.2,0
	c0,1.9,0,3.7,0,5.6h0.3c0-1.8,0-3.7,0-5.5c0.5,0,0.8,0,1.2,0c0,0.8,0,1.6,0,2.5c0,1,0,2,0,3l0,0h0.7l0,0c0-2.6,0-5.1,0-7.7
	c0-0.5,0-1,0.2-1.4c0.4-1.5,1.9-2.4,3.5-2.2s2.8,1.5,2.8,3.2c0,2.6,0,5.1,0,7.7c0,0.2,0,0.3,0,0.5h0.6c0-1.5,0-3,0-4.4
	c0-0.3,0-0.7,0-1.1c0.4,0,0.7,0,1.2,0c0,1.8,0,3.7,0,5.5h0.4c0.1-1.8-0.1-3.7,0.1-5.6c0.3,0,0.6,0,1.1,0c0,1.8,0,3.7,0,5.6h0.3
	c0-1.8,0-3.7,0-5.5c0.5,0,0.8,0,1.2,0c0,1.9,0,3.7,0,5.5h0.3c0-1.8,0-3.7,0-5.5c0.5,0,0.8,0,1.3,0c0,1.8,0,3.7,0,5.5h0.3
	c0-1.8,0-3.7,0-5.5c0.5,0,0.8,0,1.1,0c0,0.3,0.1,0.6,0.1,0.9c0,1.5,0,3.1,0,4.6h0.6c0-2.7,0-5.4,0-8.1c0-1.5,0.9-2.7,2.3-3.1
	c1.4-0.4,2.9,0.1,3.7,1.3c0.3,0.6,0.5,1.3,0.5,2c0.1,2.3,0,4.7,0,7c0,0.3,0,0.6,0,0.9h0.6c0-1.5,0-3.1,0-4.6c0-0.3,0-0.6,0-0.9
	c0.4,0,0.7,0,1.1,0c0,1.9,0,3.7,0,5.5h0.4c0-1.6,0-3.1,0-4.7c0-1,0-1,1.2-0.8c0,1.8,0,3.6,0,5.5h0.3c0-1.8,0-3.7,0-5.5
	c0.4,0,0.7,0,1.2,0c0,1.8,0,3.7,0,5.5h0.3c0-1.8,0-3.7,0-5.5c0.5,0,0.7,0,1.2,0c0,1.8,0,3.7,0,5.5h0.3c0-1.8,0-3.7,0-5.5
	c0.5,0,0.8,0,1.2,0c0,1.8,0,3.5,0,5.2c0,0.1,0,0.2,0,0.3h0.7c0-0.1,0-0.1,0-0.2c0-2.6,0-5.1,0-7.7c0-2.1,1.3-3.4,3.1-3.4
	c2,0,3.3,1.4,3.3,3.5c0,2.6,0,5.2,0,7.8v0.1h0.6v-0.1c0-1.5,0-3,0-4.5c0-1,0-1,1.2-0.9c0,1.8,0,3.7,0,5.5h0.3c0-1.8,0-3.7,0-5.5
	c1.2-0.2,1.2-0.2,1.2,0.8c0,1.6,0,3.1,0,4.7l0,0h0.3c0.2-1.8,0.1-3.7,0.2-5.6c0.3,0,0.6,0,1.1,0c0,1.9,0,3.7,0,5.6H58v-0.1
	c0-1.5,0-3.1,0-4.6c0-0.8,0.2-1,1.1-0.8c0,0.5,0,1.1,0,1.7c0,1.3,0,2.6,0,3.8h0.7c0-2.7,0-5.4,0-8c0-1.5,0.9-2.7,2.2-3.1
	c1.3-0.4,2.9,0,3.6,1.2c0.4,0.6,0.6,1.4,0.6,2.1c0.1,2.4,0,4.9,0,7.3v0.1c0.1-0.1,0.3-0.2,0.4-0.3c0-1.3,0-2.6,0-3.9
	c0-1,0-1,1.1-0.9c0,1.1,0,2.2,0,3.3c0.1-0.4,0.2-0.8,0.2-1.2V8.4H68.1z M61.2,25.8c1.6-1.5,3.1-3.1,4.5-4.5c-1.4,0-3,0-4.5,0
	C61.2,22.8,61.2,24.3,61.2,25.8z M40.1,37.1c-0.3,0-0.5,0.2-0.5,0.5V39c0,0.3,0.2,0.5,0.5,0.5s0.5-0.2,0.5-0.5v-1.4
	C40.6,37.3,40.4,37.1,40.1,37.1z M34.8,21.4c-0.3,0-0.5,0.2-0.5,0.5v1.4c0,0.3,0.2,0.5,0.5,0.5s0.5-0.2,0.5-0.5v-1.4
	C35.3,21.6,35.1,21.4,34.8,21.4z M40.1,42.4c-0.3,0-0.5,0.2-0.5,0.5v1.4c0,0.3,0.2,0.5,0.5,0.5s0.5-0.2,0.5-0.5v-1.4
	C40.6,42.6,40.4,42.4,40.1,42.4z M34.8,26.6c-0.3,0-0.5,0.2-0.5,0.5v1.4c0,0.3,0.2,0.5,0.5,0.5s0.5-0.2,0.5-0.5v-1.4
	C35.3,26.8,35.1,26.6,34.8,26.6z M34.9,16.6c-1.1,0-2.3,0-3.2,0c-2,0-3.3-1.5-3.2-3.4c0.1-1.6,1.4-2.9,3-3c0.3,0,0.8,0,1.3,0
	c0.7,0,1.4,0,1.4,0c1.1,0,1.3,0,1.7,0c0.2,0,0.6,0,1.3,0c2,0,3.3,1.5,3.2,3.4c-0.1,1.6-1.4,2.9-3,3C36.9,16.6,36,16.6,34.9,16.6z
	 M31.8,15.3c0.8,0,2,0,3.1,0s2,0,2.4,0c1,0,1.8-0.8,1.8-1.8c0-0.6-0.1-1.1-0.5-1.5s-0.9-0.6-1.5-0.6s-1,0-1.2,0c-0.1,0-0.3,0-0.4,0
	c-0.2,0-0.6,0-1.3,0l0,0l0,0c0,0-0.7,0-1.4,0c-0.5,0-1,0-1.2,0c-1,0-1.8,0.8-1.8,1.8c0,0.6,0.1,1.1,0.5,1.5
	C30.7,15.1,31.2,15.3,31.8,15.3z M37.1,14c0.4,0,0.6-0.3,0.6-0.6c0-0.4-0.3-0.6-0.6-0.6c-0.4,0-0.6,0.3-0.6,0.6S36.8,14,37.1,14z
	 M31.9,12.7c-0.4,0-0.6,0.3-0.6,0.6c0,0.4,0.3,0.6,0.6,0.6c0.4,0,0.6-0.3,0.6-0.6S32.2,12.7,31.9,12.7z"/>
</svg>
