<?xml version="1.0" encoding="utf-8"?>
<!-- Generator: Adobe Illustrator 21.1.0, SVG Export Plug-In . SVG Version: 6.00 Build 0)  -->
<svg version="1.1" id="Layer_1" xmlns="http://www.w3.org/2000/svg" xmlns:xlink="http://www.w3.org/1999/xlink" x="0px" y="0px"
	 width="40px" height="40px" viewBox="0 0 40 40" style="enable-background:new 0 0 40 40;" xml:space="preserve">
<style type="text/css">
	.st0{fill:#FFCE06;}
</style>
<symbol  id="gear" viewBox="-40 -39.3 80 78.6">
	<g>
		<g>
			<g>
				<g>
					<g>
						<g>
							<g>
								<g>
									<g>
										<g>
											<g>
												<g>
													<g>
														<g>
															<g>
																<path class="st0" d="M-0.2,20h-0.1c-11,0-19.8-8.9-19.8-19.9s8.9-19.8,19.9-19.8h0.1C10.8-19.8,19.7-11,19.8-0.1
																	c0,0.1,0,0.2,0,0.3C19.7,11.1,10.8,20-0.2,20z M-0.2-14.9L-0.2-14.9c-8.4,0-15.1,6.7-15.2,15
																	c0,8.3,6.7,15.1,15,15.1l0,0h0.1c8.3,0,15.1-6.7,15.1-15C14.9-8.1,8.2-14.9-0.2-14.9L-0.2-14.9L-0.2-14.9z"/>
																<path class="st0" d="M39.9,3c-1.3,4.5-2.5,8.9-3.8,13.4c-0.5,1.7-0.6,1.8-2.4,1.9c-2.7,0.2-5.4,0.3-8,0.6
																	c-1.5,0.1-1.4,0.2-1.3,1.6c0.4,3.3,0.7,6.6,1.1,10.1c0,0.6-0.4,1-1,1.2c-4.4,2.1-8.7,4.3-13.1,6.4
																	c-0.3,0.1-0.6,0.2-0.8,0.2c-0.4,0-0.9-0.2-1.2-0.5c-2.5-2.5-5.1-4.9-7.6-7.4C1.5,30.1,1,30,0.6,30.3
																	c-0.1,0.1-0.2,0.1-0.2,0.2c-2.7,2.7-5.5,5.4-8.3,8.1c-0.3,0.4-0.7,0.6-1.2,0.7c-0.3,0-0.7-0.1-1-0.3
																	c-4.4-2.1-8.7-4.2-13.1-6.3c-0.7-0.3-1.1-1-0.9-1.7c0.4-3.5,0.7-7.1,1.1-10.6c0.2-0.4-0.1-0.9-0.5-1.1
																	c-0.1,0-0.2-0.1-0.4,0c-3.9-0.5-7.8-1-11.7-1.6c-0.7,0-1.3-0.6-1.4-1.3c-0.9-4.6-1.9-9.3-2.9-14
																	C-40.1,1.2-40,1-39,0.3l8.8-5.5c0.8-0.5,0.8-0.6,0.3-1.4l-5.8-10c-0.6-1-0.5-1.3,0.2-2.2l9.2-11
																	c0.2-0.4,0.7-0.7,1.1-0.7c0.3,0,0.6,0.1,0.8,0.2l9.7,3.5c0.3,0.1,0.6,0.2,0.9,0.2c0.3,0,0.5-0.3,0.7-0.9
																	c1.4-3.5,2.8-7,4.2-10.5c0.2-0.8,1-1.4,1.8-1.3l0,0c4.7,0,9.5,0,14.2,0c1.2,0,1.5,0.2,1.9,1.4
																	c1.1,3.5,2.2,6.9,3.2,10.4c0,0.4,0.3,0.7,0.7,0.7c0.2,0,0.3,0,0.5-0.1C17-28,20.6-29,24.2-30.1
																	c0.4-0.1,0.8-0.2,1.2-0.2c0.5,0,0.8,0.3,1.4,1.1l8.5,11.3c0.6,0.9,0.6,1.2,0,2.1c-2,2.9-3.9,5.8-5.9,8.7
																	c-0.3,0.4-0.3,0.9,0,1.3c0.1,0.1,0.2,0.1,0.3,0.2c3.2,2.2,6.3,4.4,9.4,6.7C40,1.7,40.1,2.1,39.9,3z M34.3,3.6
																	c-2.4-1.7-4.9-3.5-7.3-5.2c-2.6-1.7-3.4-5.1-1.7-7.7c0.1-0.1,0.2-0.3,0.3-0.4c1.4-2.1,2.8-4.2,4.2-6.2l0.5-0.8
																	l-6-8.3l-2,0.6c-2.3,0.7-4.8,1.4-7.1,2.1C14.6-22.1,14-22,13.4-22c-2.5,0-4.7-1.7-5.3-4.1c-0.8-2.6-1.6-5.3-2.5-7.8
																	l-0.2-0.5H-5c-0.8,2.1-1.6,4.1-2.4,6.2l-1,2.6c-1.3,3.3-3.5,4-5.2,4c-0.9,0-1.7-0.2-2.5-0.5l-3.2-1.2l-4.5-1.6
																	l-6.6,7.9l2,3.5l2.7,4.7c1.8,3,1,6.1-1.9,7.9l-4.9,3l-2.2,1.4l0.4,1.8c0.6,2.7,1.2,5.5,1.8,8.2l2.1,0.3
																	c2.4,0.3,4.9,0.7,7.4,1c3.1,0.3,5.4,3,5.1,6.1c0,0.1,0,0.2,0,0.3c-0.2,1.8-0.4,3.6-0.6,5.4c-0.1,1-0.2,2-0.3,3
																	l5.6,2.7l3.6,1.8l0.4-0.4c2.1-2,4.3-4.2,6.4-6.3c2.1-2.3,5.7-2.4,7.9-0.3c-0.1-0.1,0,0,0.1,0.1
																	c1.2,1.2,2.5,2.4,3.8,3.6l2.3,2.2l9.2-4.5v-0.4c-0.3-2.4-0.5-4.7-0.8-7V21c-0.4-1.7,0-3.5,1.1-4.9
																	c1.2-1.3,2.8-2.1,4.6-2c2.2-0.2,4.5-0.3,6.6-0.5c0.9-3.3,1.8-6.5,2.7-9.8L34.3,3.6z"/>
															</g>
														</g>
													</g>
												</g>
											</g>
										</g>
									</g>
								</g>
							</g>
						</g>
					</g>
				</g>
			</g>
		</g>
	</g>
</symbol>
<use xlink:href="#gear"  width="80" height="78.6" id="XMLID_2_" x="-40" y="-39.3" transform="matrix(0.5002 0 0 -0.5002 20 20)" style="overflow:visible;"/>
</svg>
