<?xml version="1.0" encoding="utf-8"?>
<!-- Generator: Adobe Illustrator 22.1.0, SVG Export Plug-In . SVG Version: 6.00 Build 0)  -->
<svg version="1.1" id="Layer_1" xmlns="http://www.w3.org/2000/svg" xmlns:xlink="http://www.w3.org/1999/xlink" x="0px" y="0px"
	 width="192px" height="162px" viewBox="0 0 192 162" style="enable-background:new 0 0 192 162;" xml:space="preserve">
<style type="text/css">
	.st0{display:none;}
	.st1{fill:#3BB2F7;}
	.st2{display:inline;}
</style>
<g id="Layer_1_1_" class="st0">
	<path class="st1" d="M176-15h-8v4h8V-15z M160-15h-8v4h8V-15z M144-15h-8v4h8V-15z M128-15h-8v4h8V-15z M112-15h-8v4h8V-15z M96-15
		h-8v4h8V-15z M80-15h-8v4h8V-15z M64-15h-8v4h8V-15z M48-15h-8v4h8V-15z M32-15h-8v4h8V-15z M16-15h-1.5c-1.8,0.2-3.5,0.7-5.2,1.5
		l0,0l0,0l0,0l0,0l0,0l0,0l0,0l0,0l0,0l0,0H8.9l0,0l0,0l0,0l0,0l-0.5,0.2l1.9,3.5c1.8-0.9,3.7-1.3,5.7-1.2V-15z M2.5-7.6
		C1.8-6.5,1.2-5.3,0.8-4l0,0l0,0l0,0l0,0l0,0l0,0l0,0l0,0l0,0l0,0l0,0l0,0l0,0l0,0l0,0l0,0l0,0l0,0l0,0l0,0l0,0l0,0l0,0l0,0l0,0l0,0
		l0,0l0,0l0,0l0,0l0,0l0,0l0,0l0,0l0,0l0,0l0,0l0,0l0,0l0,0l0,0l0,0l0,0l0,0l0,0l0,0l0,0l0,0l0,0l0,0l0,0l0,0l0,0l0,0l0,0l0,0l0,0
		l0,0l0,0C0.4-2.8,0.1-1.6,0-0.3L4,0c0.1-2,0.8-3.9,1.9-5.6L2.5-7.6z M4,7.9H0v8h4V7.9z M4,23.9H0v8h4V23.9z M4,39.9H0v8h4V39.9z
		 M4,55.9H0v8h4V55.9z M4,71.9H0v8h4V71.9z M4,87.9H0v8h4V87.9z M4,103.9H0v8h4V103.9z M4,119.9H0v8h4V119.9z M4,135.9H0v8h4V135.9z
		 M4,151.9H0v8h4V151.9z M5.1,166l-3.6,1.7c0.1,0.2,0.2,0.4,0.3,0.6l0,0v0.1l0,0l0,0l0,0l0,0l0,0l0,0l0,0l0,0l0,0l0,0l0,0l0,0l0,0
		l0,0l0,0l0,0l0,0l0,0l0,0l0,0l0,0l0,0l0,0l0,0l0,0l0,0l0,0l0,0l0,0l0,0l0,0l0,0l0,0l0,0l0,0l0,0l0,0l0,0l0,0l0,0l0,0l0,0l0,0l0,0
		l0,0l0,0H2l0,0l0,0l0,0l0,0c1.1,2,2.6,3.7,4.4,5l2.4-3.2C7.2,169.1,6,167.7,5.1,166z M14.3,172.9l-0.6,4c0.6,0.1,1.1,0.1,1.7,0.1
		h6.3v-4H16C15.4,173,14.9,173,14.3,172.9L14.3,172.9z M37.7,173h-8v4h8V173z M53.7,173h-8v4h8V173z M69.7,173h-8v4h8V173z
		 M85.7,173h-8v4h8V173z M101.7,173h-8v4h8V173z M117.7,173h-8v4h8V173z M133.7,173h-8v4h8V173z M149.7,173h-8v4h8V173z M165.7,173
		h-8v4h8V173z M180.2,172.3c-1.4,0.5-2.8,0.8-4.2,0.7h-2.3v4h3.6c1.5-0.1,2.9-0.4,4.3-1L180.2,172.3L180.2,172.3z M187.8,163.6
		c-0.4,2-1.3,3.8-2.6,5.3l3,2.6l0,0l0,0l0,0l0,0l0,0l0,0l0,0l0,0l0,0l0,0l0,0l0,0l0,0l0,0l0,0l0,0l0,0l0,0l0,0l0,0l0,0l0,0l0,0
		c1.7-2,2.8-4.4,3.4-6.9l-3.9-0.8L187.8,163.6z M192,148.4h-4v8h4V148.4z M192,132.4h-4v8h4V132.4z M192,116.4h-4v8h4V116.4z
		 M192,100.4h-4v8h4V100.4z M192,84.4h-4v8h4V84.4z M192,68.4h-4v8h4V68.4z M192,52.4h-4v8h4V52.4z M192,36.4h-4v8h4V36.4z
		 M192,20.4h-4v8h4V20.4z M192,4.4h-4v8h4V4.4z M187.3-10.3l-2.8,2.8c1.4,1.4,2.5,3.2,3,5.1l3.8-1.1c-0.1-0.3-0.2-0.5-0.2-0.8l0,0
		l0,0l0,0l0,0l0,0l0,0l0,0l0,0l0,0l0,0l0,0l0,0l0,0l0,0l0,0l0,0l0,0l0,0l0,0l0,0l0,0l0,0l0,0l0,0l0,0l0,0l0,0l0,0l0,0
		c-0.8-2.2-2.1-4.1-3.7-5.8L187.3-10.3z M176-15v4c1.1,0,2.3,0.2,3.4,0.5l1.1-3.9l-0.4-0.1l0,0l0,0h-0.2l0,0l0,0l0,0l0,0
		c-0.9-0.2-1.8-0.4-2.7-0.4L176-15L176-15z"/>
	<g class="st2">
		<rect x="88" y="57" class="st1" width="16" height="48"/>
		<rect x="72" y="73" class="st1" width="48" height="16"/>
	</g>
</g>
<path class="st1" d="M177.8,162h-8.2v-4h8.2L177.8,162z M161.4,162h-8.2v-4h8.2V162z M145,162h-8.2v-4h8.2V162z M128.6,162h-8.2v-4
	h8.2V162z M112.3,162h-8.2v-4h8.2V162z M95.9,162h-8.2v-4h8.2V162z M79.5,162h-8.2v-4h8.2V162z M63.2,162H55v-4h8.2V162z M46.8,162
	h-8.2v-4h8.2V162z M30.5,162h-8.2v-4h8.2V162z M14.1,162c-3.2,0-6.3-1.2-8.8-3.2l2.5-3.1c1.8,1.5,4,2.3,6.3,2.3L14.1,162z
	 M186.6,158.9l-2.5-3.1c1.8-1.4,3.1-3.5,3.6-5.7l3.9,0.9C190.9,154.1,189.1,156.9,186.6,158.9z M0.4,150.9c-0.2-1-0.4-2.1-0.4-3.2
	v-5.4h4v5.4c0,0.8,0.1,1.5,0.3,2.3L0.4,150.9z M192,142.4h-4v-8.2h4V142.4z M4,134.1H0v-8.2h4V134.1z M192,126.1h-4v-8.2h4V126.1z
	 M4,117.7H0v-8.2h4V117.7z M192,109.7h-4v-8.2h4V109.7z M4,101.4H0v-8.2h4V101.4z M192,93.3h-4v-8.2h4V93.3z M4,85H0v-8.2h4V85z
	 M192,77h-4v-8.2h4V77z M4,68.6H0v-8.2h4V68.6z M192,60.6h-4v-8.2h4V60.6z M4,52.3H0v-8.2h4V52.3z M192,44.2h-4v-8.2h4V44.2z
	 M4,35.9H0v-8.2h4V35.9z M192,27.9h-4v-8.2h4V27.9z M4,19.6H0v-5.3c0-1.1,0.1-2.3,0.4-3.4l3.9,0.9C4.1,12.7,4,13.5,4,14.3V19.6z
	 M187.7,12c-0.5-2.2-1.8-4.2-3.6-5.7l2.5-3.1c2.5,2,4.2,4.8,5,7.9L187.7,12z M7.9,6.2L5.4,3.1c2.5-2,5.6-3.1,8.8-3.1l0,4
	C11.9,4,9.8,4.8,7.9,6.2z M177.9,4l-0.1,0h-8V0l8.2,0L177.9,4z M161.5,4h-8.2V0h8.2V4z M145.2,4H137V0h8.2V4z M128.8,4h-8.2V0h8.2V4
	z M112.4,4h-8.2V0h8.2V4z M96.1,4h-8.2V0h8.2V4z M79.7,4h-8.2V0h8.2V4z M63.3,4h-8.2V0h8.2V4z M47,4h-8.2V0H47V4z M30.6,4h-8.2V0
	h8.2V4z"/>
<g>
	<path class="st1" d="M116.9,74.1v13.8h-13.2v14.5H88.4V87.9H75.1V74.1h13.3V59.6h15.4v14.5H116.9z"/>
</g>
</svg>
